*
G04 Mass Parameters ***
*
G04 Image ***
*
%INF:\ROHITH\ORCAD SCHEMATICS\GERBER\LAYOUT.BOT*%
%ICAS*%
%MOIN*%
%IPPOS*%
%ASAXBY*%
G74*%FSLAN2X34Y34*%
*
G04 Aperture Definitions ***
*
%ADD10R,0.0700X0.0500*%
%ADD11R,0.0394X0.0512*%
%ADD12C,0.0748*%
%ADD13C,0.0689*%
%ADD14R,0.0689X0.0689*%
%ADD15R,0.0500X0.0700*%
%ADD16C,0.0394*%
%ADD17C,0.1378*%
%ADD18O,0.0354X0.0472*%
%ADD19R,0.0590X0.0315*%
%ADD20R,0.0315X0.0590*%
%ADD21R,0.2756X0.1575*%
%ADD22R,0.0394X0.1378*%
%ADD23C,0.0079*%
%ADD24C,0.0100*%
%ADD25C,0.0118*%
%ADD26C,0.0197*%
%ADD27C,0.0138*%
*
G04 Plot Data ***
*
G54D23*
G01X-0000769Y0018012D02*
X-0001044D01*
Y0017539D01*
X-0001517Y0018012D02*
X-0001556Y0017933D01*
Y0017618D01*
X-0001517Y0017539D01*
X-0001280D01*
X-0001241Y0017618D01*
Y0017933D01*
X-0001280Y0018012D01*
X-0001517D01*
X-0001753Y0017618D02*
X-0001792Y0017539D01*
X-0002028D01*
X-0002068Y0017618D01*
Y0017697D01*
X-0002028Y0017775D01*
X-0001792D01*
X-0001753Y0017854D01*
Y0017933D01*
X-0001792Y0018012D01*
X-0002028D01*
X-0002068Y0017933D01*
X0002480Y0029000D02*
Y0028920D01*
X0000214Y0029000D02*
Y0028920D01*
X0002267Y0029000D02*
Y0028920D01*
X0013000Y0020539D02*
X0012582D01*
X-0000824Y0026344D02*
X-0001348D01*
X0003830Y0025920D02*
X0002622D01*
X0002872Y0022955D02*
X0002833Y0022916D01*
X0003612Y0026220D02*
Y0025769D01*
X0003080Y0022451D02*
X0002216D01*
X-0003402Y0020297D02*
Y0019250D01*
X-0002714Y0020297D02*
X-0003402D01*
X-0002242Y0019824D02*
Y0019250D01*
X-0003268Y0022805D02*
X-0003750D01*
X-0003402Y0022547D02*
Y0021453D01*
X-0002508D02*
X-0003402D01*
X-0002714Y0022547D02*
X-0003402D01*
X-0002508Y0022341D02*
Y0021453D01*
X-0001348Y0022547D02*
X-0001879D01*
X-0001348Y0021453D02*
X-0002242D01*
X-0001348Y0022547D02*
Y0021453D01*
X-0003402Y0024797D02*
Y0023703D01*
X-0002508D02*
X-0003402D01*
X-0002714Y0024797D02*
X-0003402D01*
X-0002508Y0024591D02*
Y0023703D01*
X-0000549Y0024221D02*
X-0000830D01*
X-0000549Y0024575D02*
X-0000830D01*
X-0000549Y0024504D02*
X-0000830D01*
X0002196Y0029000D02*
Y0028920D01*
X-0001348Y0025953D02*
X-0002242D01*
X-0001348Y0027047D02*
Y0025953D01*
Y0027047D02*
X-0001879D01*
X-0003402D02*
Y0025953D01*
X-0002508D02*
X-0003402D01*
X-0002242Y0026574D02*
Y0025953D01*
X-0000635Y0026266D02*
Y0023552D01*
X-0000966Y0021531D02*
X-0001348D01*
X-0000436Y0018435D02*
X0000687Y0017312D01*
X0012533Y0017283D02*
X0007653D01*
X0003459Y0020115D02*
X0002929D01*
X0003470Y0018982D02*
X0002640D01*
X0011714Y0018416D02*
X0011286D01*
X0011562Y0018557D02*
X0011438D01*
X-0001555Y0023703D02*
Y0023420D01*
X0010337Y0018452D02*
Y0017006D01*
X0013000Y0019194D02*
X0012436D01*
X-0001588Y0023577D02*
Y0023420D01*
X0010623Y0018486D02*
X0010376D01*
X-0000847Y0028330D02*
Y0025100D01*
X0009518Y0018628D02*
X0009481D01*
X0013000Y0018416D02*
X0012286D01*
X0013000Y0018133D02*
X0008265D01*
X0009562Y0018557D02*
X0009438D01*
X0002904Y0029000D02*
Y0028638D01*
X0013000Y0018486D02*
X0012376D01*
X0010518Y0018628D02*
X0010481D01*
X0007506Y0017234D02*
Y0017000D01*
X0004745Y0017234D02*
Y0017000D01*
X0008714Y0018416D02*
X0008286D01*
X0002055Y0029000D02*
Y0028920D01*
X0006656Y0017234D02*
Y0017000D01*
X0000073Y0029000D02*
Y0028920D01*
X0005240Y0017234D02*
Y0017000D01*
X0003203Y0027973D02*
X0003045D01*
X-0000989Y0029000D02*
Y0028920D01*
X0003203Y0027406D02*
X0003136D01*
X0004532Y0017234D02*
Y0017000D01*
X0003705Y0020539D02*
X0002867D01*
X0003459Y0020416D02*
Y0019334D01*
X0002944Y0022876D02*
X0002783D01*
X0001041Y0023959D02*
X0000357D01*
X0000639D02*
Y0023644D01*
X0002886Y0022955D02*
X0002872D01*
X-0000549Y0024079D02*
X-0000830D01*
X-0002482Y0021327D02*
X-0003268D01*
Y0020423D01*
X-0001348Y0020297D02*
X-0001879D01*
X-0002840Y0020423D02*
X-0003268D01*
X-0001588Y0021327D02*
X-0002375D01*
X-0002482D02*
Y0020899D01*
X-0002375Y0021327D02*
Y0020792D01*
X-0002482Y0023577D02*
X-0003268D01*
Y0022673D01*
X-0002242Y0022074D02*
Y0021453D01*
X-0002840Y0022673D02*
X-0003268D01*
X-0001588Y0023577D02*
X-0002375D01*
X-0002482D02*
Y0023149D01*
X-0002375Y0023577D02*
Y0023042D01*
X-0001295Y0022628D02*
Y0022375D01*
X-0002482Y0025827D02*
X-0003268D01*
Y0024923D01*
X-0002242Y0024324D02*
Y0023703D01*
X-0002840Y0024923D02*
X-0003268D01*
X-0001588Y0025827D02*
X-0002375D01*
X-0002482D02*
Y0025399D01*
X-0002375Y0025827D02*
Y0025292D01*
X-0000989Y0028330D02*
Y0025281D01*
X-0002482Y0028077D02*
X-0003268D01*
Y0027173D01*
X-0002714Y0027047D02*
X-0003402D01*
X-0002840Y0027173D02*
X-0003268D01*
X-0001708Y0028833D02*
X-0002187Y0028354D01*
X-0002482Y0028077D02*
Y0027649D01*
X-0002375Y0028077D02*
Y0027542D01*
X-0001588Y0028077D02*
Y0027173D01*
X0003203Y0028652D02*
Y0027758D01*
X0004297D02*
X0003203D01*
X0004297Y0028652D02*
Y0027758D01*
Y0028652D02*
X0003203D01*
X0002655Y0027052D02*
X0002324D01*
X0004333Y0027340D02*
X0004297D01*
Y0027492D02*
X0003203D01*
X-0001348Y0020297D02*
Y0019250D01*
X-0000533Y0018247D02*
X-0001000D01*
X-0000533D02*
Y0017303D01*
X-0001555Y0028994D02*
Y0028915D01*
X0005000Y0029000D02*
X-0001446D01*
X-0003750Y0028750D02*
Y0019500D01*
X-0003500Y0019250D01*
X-0000817Y0020185D02*
X-0001348D01*
X-0001250Y0019250D02*
X-0001000Y0019000D01*
X0004534Y0027541D02*
X0004333Y0027340D01*
X-0001000Y0019000D02*
Y0018247D01*
X-0003402Y0019478D02*
X-0003728D01*
X0010904Y0018342D02*
Y0017006D01*
X0012500Y0027000D02*
X0013000Y0026500D01*
X-0000847Y0021805D02*
Y0021545D01*
X0005250Y0028000D02*
X0005341Y0027977D01*
X0005250Y0028750D02*
Y0028000D01*
X0005000Y0029000D02*
X0005250Y0028750D01*
X0013000Y0020968D02*
Y0017750D01*
X0012256Y0017006D01*
X0011753Y0018393D02*
Y0017006D01*
X0011612Y0018498D02*
Y0017006D01*
X0010550Y0018575D02*
Y0017006D01*
X0011623Y0018486D02*
X0011376D01*
X0011328Y0018445D02*
Y0017006D01*
X0012390Y0018500D02*
Y0017140D01*
X0012249Y0018394D02*
Y0017006D01*
X0012178Y0018364D02*
Y0017006D01*
X0012107Y0018345D02*
Y0017006D01*
X0011187Y0018367D02*
Y0017006D01*
X0009913Y0018341D02*
Y0017000D01*
X0011895Y0018344D02*
Y0017006D01*
X0012957Y0020914D02*
Y0017707D01*
X0012461Y0018592D02*
Y0017211D01*
X0010562Y0018557D02*
X0010438D01*
X0010714Y0018416D02*
X0010286D01*
X0012036Y0018335D02*
Y0017006D01*
X0011258Y0018399D02*
Y0017006D01*
X0011966Y0018335D02*
Y0017006D01*
X0011116Y0018346D02*
Y0017006D01*
X0011045Y0018336D02*
Y0017006D01*
X0010267Y0018404D02*
Y0017006D01*
X0011541Y0018588D02*
Y0017006D01*
X0010833Y0018360D02*
Y0017006D01*
X0010762Y0018389D02*
Y0017006D01*
X0012532Y0018777D02*
Y0017282D01*
X0009714Y0018416D02*
X0009286D01*
X0010975Y0018334D02*
Y0017006D01*
X0012320Y0018438D02*
Y0017070D01*
X0010196Y0018371D02*
Y0017000D01*
X0010125Y0018349D02*
Y0017000D01*
X0010054Y0018337D02*
Y0017000D01*
X0009983Y0018334D02*
Y0017000D01*
X0013000Y0019548D02*
X0012431D01*
X0009842Y0018357D02*
Y0017000D01*
X0009771Y0018385D02*
Y0017000D01*
X0013000Y0018557D02*
X0012438D01*
X0009488Y0018641D02*
Y0017000D01*
X0009417Y0018530D02*
Y0017000D01*
X0009346Y0018459D02*
Y0017000D01*
X0009276Y0018409D02*
Y0017000D01*
X0009063Y0018338D02*
Y0017000D01*
X0002833Y0017234D02*
Y0017000D01*
X0009623Y0018486D02*
X0009376D01*
X0013000Y0018274D02*
X0008265D01*
X0007860Y0017484D02*
Y0017000D01*
X0005382Y0017234D02*
Y0017000D01*
X0008497Y0018661D02*
Y0017000D01*
X0012675Y0017425D02*
X0007800D01*
X0007223Y0017234D02*
Y0017000D01*
X0007081Y0017234D02*
Y0017000D01*
X0007647Y0017279D02*
Y0017000D01*
X0008214Y0017842D02*
Y0017000D01*
X0006939Y0017234D02*
Y0017000D01*
X0008001Y0017626D02*
Y0017000D01*
X0006869Y0017234D02*
Y0017000D01*
X0008780Y0018381D02*
Y0017000D01*
X0008355Y0018467D02*
Y0017000D01*
X0007435Y0017234D02*
Y0017000D01*
X0004674Y0017234D02*
Y0017000D01*
X0006515Y0017234D02*
Y0017000D01*
X0006019Y0017234D02*
Y0017000D01*
X0007930Y0017555D02*
Y0017000D01*
X0003203Y0027831D02*
X0003045D01*
X0007293Y0017234D02*
Y0017000D01*
X0008143Y0017767D02*
Y0017000D01*
X0006302Y0017234D02*
Y0017000D01*
X0006231Y0017234D02*
Y0017000D01*
X0007010Y0017234D02*
Y0017000D01*
X0006161Y0017234D02*
Y0017000D01*
X0006090Y0017234D02*
Y0017000D01*
X0003563Y0019194D02*
X0002640D01*
X0013000Y0019407D02*
X0012271D01*
X0005453Y0017234D02*
Y0017000D01*
X0003459Y0019478D02*
X0002640D01*
X0005099Y0017234D02*
Y0017000D01*
X0003713Y0019334D02*
X0003459D01*
X0001347Y0017234D02*
Y0017000D01*
X0003258Y0027758D02*
Y0027492D01*
X0001276Y0017234D02*
Y0017000D01*
X0004391Y0017234D02*
Y0017000D01*
X0004320Y0017234D02*
Y0017000D01*
X0002550Y0017234D02*
Y0017000D01*
X0004603Y0017234D02*
Y0017000D01*
X0004249Y0017234D02*
Y0017000D01*
X0004179Y0017234D02*
Y0017000D01*
X0004108Y0017234D02*
Y0017000D01*
X0004037Y0017234D02*
Y0017000D01*
X0003966Y0017234D02*
Y0017000D01*
X0003825Y0017234D02*
Y0017000D01*
X0003683Y0017234D02*
Y0017000D01*
X0003541Y0017234D02*
Y0017000D01*
X0003471Y0017234D02*
Y0017000D01*
X0003400Y0017234D02*
Y0017000D01*
X0003329Y0017234D02*
Y0017000D01*
X0003187Y0017234D02*
Y0017000D01*
X0003117Y0017234D02*
Y0017000D01*
X0003046Y0017234D02*
Y0017000D01*
X0002975Y0017234D02*
Y0017000D01*
X0002904Y0017234D02*
Y0017000D01*
X0003518Y0018628D02*
X0002640D01*
X0002480Y0017234D02*
Y0017000D01*
X0002692Y0017234D02*
Y0017000D01*
X0008188Y0017812D02*
X0007689Y0017314D01*
X0002409Y0017234D02*
Y0017000D01*
X0002267Y0017234D02*
Y0017000D01*
X0002196Y0017234D02*
Y0017000D01*
X0002126Y0017234D02*
Y0017000D01*
X-0000549Y0024787D02*
X-0000830D01*
Y0025000D02*
Y0023747D01*
X0001984Y0017234D02*
Y0017000D01*
X0003895Y0017234D02*
Y0017000D01*
X0001701Y0017234D02*
Y0017000D01*
X0001772Y0017234D02*
Y0017000D01*
X0001064Y0017234D02*
Y0017000D01*
X-0000515Y0019745D02*
Y0018625D01*
X0000497Y0017502D02*
Y0017000D01*
X0000285Y0017714D02*
Y0017000D01*
X0000143Y0017856D02*
Y0017000D01*
X0000427Y0017573D02*
Y0017000D01*
X0000002Y0017997D02*
Y0017005D01*
X-0000069Y0018068D02*
Y0017006D01*
X-0000139Y0018139D02*
Y0017006D01*
X-0000553Y0017303D02*
X-0000256Y0017006D01*
X-0000281Y0018281D02*
Y0017031D01*
X-0000352Y0018351D02*
Y0017102D01*
X-0001060Y0020649D02*
Y0019060D01*
X-0001131Y0020605D02*
Y0019131D01*
X-0001201Y0020584D02*
Y0019201D01*
X-0001272Y0020580D02*
Y0019250D01*
X-0001343Y0020580D02*
Y0019250D01*
X-0003402Y0019690D02*
X-0003750D01*
X-0000515Y0019194D02*
X-0001194D01*
X-0002405Y0019988D02*
Y0019250D01*
X-0003268Y0025070D02*
X-0003750D01*
X-0003402Y0022097D02*
X-0003750D01*
X-0002482Y0023149D02*
X-0002375Y0023042D01*
X-0000210Y0018210D02*
Y0017006D01*
X-0003402Y0019619D02*
X-0003750D01*
X-0003268Y0027194D02*
X-0003750D01*
X-0003402Y0022026D02*
X-0003750D01*
X-0002334Y0019917D02*
Y0019250D01*
X-0003467Y0028994D02*
Y0019250D01*
X-0003537Y0028962D02*
Y0019287D01*
X-0003506Y0028994D02*
X-0003750Y0028750D01*
X-0002213Y0028327D02*
X-0003750D01*
X-0003268Y0027335D02*
X-0003750D01*
X-0003268Y0027477D02*
X-0003750D01*
X0005036Y0028964D02*
X-0003536D01*
X-0001932Y0028610D02*
X-0003750D01*
X-0002276Y0028077D02*
X-0002375D01*
X-0002476Y0028994D02*
Y0027643D01*
X0002378Y0028330D02*
X-0001378D01*
X0002381Y0028327D02*
X-0001381D01*
X-0002242Y0026132D02*
X-0002508D01*
X-0002482Y0027649D02*
X-0002375Y0027542D01*
X-0003402Y0026132D02*
X-0003750D01*
X-0003268Y0027973D02*
X-0003750D01*
X-0003268Y0027902D02*
X-0003750D01*
X-0002145Y0028397D02*
X-0003750D01*
X-0002192Y0025953D02*
Y0025827D01*
X0003612Y0017234D02*
Y0017000D01*
X-0001414Y0029000D02*
Y0028920D01*
X-0001720Y0028822D02*
X-0003678D01*
X-0001791Y0028751D02*
X-0003748D01*
X-0002276Y0028114D02*
X-0003750D01*
X-0003268Y0027406D02*
X-0003750D01*
X-0000824Y0027194D02*
X-0001588D01*
X0012500Y0027000D02*
Y0026667D01*
X-0002192Y0023703D02*
Y0023577D01*
X-0000352Y0029000D02*
Y0028920D01*
X-0003402Y0026981D02*
X-0003750D01*
X-0003402Y0026911D02*
X-0003750D01*
X-0003402Y0026840D02*
X-0003750D01*
X-0003402Y0026698D02*
X-0003750D01*
X-0003402Y0026628D02*
X-0003750D01*
X-0003402Y0026557D02*
X-0003750D01*
X-0003402Y0026486D02*
X-0003750D01*
X-0003402Y0026415D02*
X-0003750D01*
X-0003402Y0026344D02*
X-0003750D01*
X-0003402Y0026274D02*
X-0003750D01*
X-0003402Y0026203D02*
X-0003750D01*
X-0003254Y0025953D02*
Y0025827D01*
X-0000451Y0025778D02*
X-0001588D01*
X-0001626Y0023703D02*
Y0023577D01*
X-0002482Y0025399D02*
X-0002375Y0025292D01*
X-0003402Y0024291D02*
X-0003750D01*
X-0003268Y0025778D02*
X-0003750D01*
X-0003268Y0025707D02*
X-0003750D01*
X-0003268Y0025636D02*
X-0003750D01*
X-0003268Y0025566D02*
X-0003750D01*
X-0003268Y0025424D02*
X-0003750D01*
X-0003402Y0024008D02*
X-0003750D01*
X-0003268Y0025282D02*
X-0003750D01*
X-0000451Y0025849D02*
X-0003750D01*
X-0003268Y0025141D02*
X-0003750D01*
X-0000549Y0025212D02*
X-0000920D01*
X-0000830Y0023747D02*
X-0000419Y0023336D01*
X-0002508Y0024591D02*
X-0002242Y0024324D01*
X-0003042Y0023703D02*
Y0023577D01*
X-0003402Y0024716D02*
X-0003750D01*
X-0003184Y0023703D02*
Y0023577D01*
X-0003268Y0023017D02*
X-0003750D01*
X-0001420Y0023654D02*
X-0003750D01*
X-0001417Y0023583D02*
X-0003750D01*
X-0003402Y0024362D02*
X-0003750D01*
X-0003268Y0025495D02*
X-0003750D01*
X-0003268Y0025353D02*
X-0003750D01*
X-0003402Y0024150D02*
X-0003750D01*
X-0003402Y0024079D02*
X-0003750D01*
X-0003268Y0025212D02*
X-0003750D01*
X-0003268Y0024929D02*
X-0003750D01*
X-0001588Y0022673D02*
X-0002005D01*
X-0001375Y0023420D02*
X-0001588D01*
X-0003268Y0020610D02*
X-0003750D01*
X-0003402Y0024575D02*
X-0003750D01*
X-0003268Y0023513D02*
X-0003750D01*
X-0003268Y0023442D02*
X-0003750D01*
X-0003268Y0023371D02*
X-0003750D01*
X-0003268Y0023300D02*
X-0003750D01*
X-0003268Y0023230D02*
X-0003750D01*
X-0002192Y0021453D02*
Y0021327D01*
X-0003268Y0020893D02*
X-0003750D01*
X-0003402Y0022168D02*
X-0003750D01*
X-0000493Y0023959D02*
Y0023411D01*
X-0001472Y0022805D02*
X-0001588D01*
X-0001626Y0022673D02*
Y0022547D01*
X-0002508Y0022341D02*
X-0002242Y0022074D01*
X-0002815Y0020398D02*
X-0003750D01*
X-0003402Y0022522D02*
X-0003750D01*
X-0003402Y0022451D02*
X-0003750D01*
X-0003402Y0022380D02*
X-0003750D01*
X-0003268Y0021035D02*
X-0003750D01*
X-0003268Y0020752D02*
X-0003750D01*
X-0003268Y0022876D02*
X-0003750D01*
X-0003268Y0022734D02*
X-0003750D01*
X-0003402Y0019973D02*
X-0003750D01*
X-0000564Y0020774D02*
Y0020726D01*
X-0000515Y0019053D02*
X-0001053D01*
X-0003402Y0020044D02*
X-0003750D01*
X-0003402Y0021814D02*
X-0003750D01*
X-0001250Y0020580D02*
X-0001588D01*
X-0002482Y0020899D02*
X-0002375Y0020792D01*
X-0003402Y0022309D02*
X-0003750D01*
X-0003268Y0021318D02*
X-0003750D01*
X-0003268Y0021247D02*
X-0003750D01*
X-0002375D02*
X-0002482D01*
X-0003268Y0021106D02*
X-0003750D01*
X-0001153Y0021389D02*
X-0003750D01*
X-0003268Y0020964D02*
X-0003750D01*
X-0002744Y0020327D02*
X-0003750D01*
X-0003268Y0020823D02*
X-0003750D01*
X-0003402Y0021884D02*
X-0003750D01*
X-0003268Y0020681D02*
X-0003750D01*
X0001134Y0017234D02*
Y0017000D01*
X-0001555Y0021453D02*
Y0021170D01*
X-0000742Y0020539D02*
X-0001588D01*
X-0000777Y0020469D02*
X-0001588D01*
X-0001909Y0020423D02*
Y0020326D01*
X-0003402Y0021460D02*
X-0003750D01*
X-0003402Y0019336D02*
X-0003586D01*
X0000639Y0017360D02*
Y0017000D01*
X-0000515Y0018840D02*
X-0001000D01*
X-0000515Y0018699D02*
X-0001000D01*
X-0003402Y0019250D02*
X-0003500D01*
X-0003402Y0019832D02*
X-0003750D01*
X-0003402Y0019548D02*
X-0003750D01*
X-0000515Y0019478D02*
X-0001348D01*
X-0000515Y0019407D02*
X-0001348D01*
X-0000515Y0019336D02*
X-0001348D01*
X-0003679Y0028821D02*
Y0019429D01*
X-0000515Y0018982D02*
X-0001000D01*
X0003459Y0019548D02*
X0002640D01*
X-0002263Y0019846D02*
Y0019250D01*
X0006585Y0017234D02*
Y0017000D01*
X-0000275Y0018274D02*
X-0001000D01*
X0000433Y0017566D02*
X-0000533D01*
X0000722Y0017283D02*
X-0000533D01*
X0012462Y0017212D02*
X-0000462D01*
X-0003608Y0028891D02*
Y0019358D01*
X-0001420Y0023703D02*
Y0023625D01*
X0000400Y0023442D02*
X-0000525D01*
X-0001555Y0022830D02*
Y0022547D01*
X-0001398Y0023513D02*
X-0001588D01*
X-0000330Y0022747D02*
X-0000128Y0022545D01*
X0002000D02*
X-0000128D01*
X-0000549Y0024999D02*
X-0000830D01*
X-0000549Y0024645D02*
X-0000830D01*
X-0000777Y0026266D02*
Y0023694D01*
X-0000330Y0023125D02*
Y0022747D01*
X0002550Y0022830D02*
Y0022117D01*
X0001913Y0022555D02*
Y0022545D01*
X0001488Y0022705D02*
Y0022545D01*
X0001559Y0022649D02*
Y0022545D01*
X0001418Y0022783D02*
Y0022545D01*
X0002208Y0022458D02*
X0002581Y0022086D01*
X0001276Y0022719D02*
Y0022545D01*
X0002480Y0022830D02*
Y0022187D01*
X0002670Y0021875D02*
Y0021738D01*
X-0001697Y0020423D02*
Y0020297D01*
X-0001626Y0020423D02*
Y0020297D01*
X-0003268Y0020539D02*
X-0003750D01*
X-0003268Y0021177D02*
X-0003750D01*
X-0002375Y0021106D02*
X-0002482D01*
X-0002375Y0021177D02*
X-0002482D01*
X-0003402Y0020115D02*
X-0003750D01*
X-0001768Y0020423D02*
Y0020297D01*
X-0001414Y0021453D02*
Y0021170D01*
X-0000782Y0020044D02*
X-0001348D01*
X-0000804Y0020115D02*
X-0001348D01*
X0013000Y0019053D02*
X0012511D01*
X0012815Y0020773D02*
Y0017565D01*
X0013000Y0018982D02*
X0012530D01*
X0012518Y0026981D02*
X0012500D01*
X0012815Y0026685D02*
Y0026352D01*
X0013000Y0026274D02*
X0012893D01*
X-0000777Y0021734D02*
Y0021545D01*
X-0003402Y0022238D02*
X-0003750D01*
X-0002263Y0022096D02*
Y0021327D01*
X0012603Y0026897D02*
Y0026564D01*
X-0000624Y0020681D02*
X-0001027D01*
X-0000753Y0020955D02*
X-0001039Y0020669D01*
X-0001083Y0021458D02*
X-0001372Y0021170D01*
X-0001082Y0021460D02*
X-0001348D01*
X-0001060Y0022018D02*
Y0021480D01*
X0000333Y0022946D02*
X-0000330D01*
X-0001295Y0021247D02*
X-0001588D01*
X-0000738Y0021545D02*
X-0000875D01*
X-0000692Y0020610D02*
X-0001119D01*
X0001276Y0029000D02*
Y0028920D01*
X0000143Y0029000D02*
Y0028920D01*
X-0001272Y0022261D02*
Y0021270D01*
X-0000635Y0029000D02*
Y0028920D01*
X0013000Y0020398D02*
X0012440D01*
X0001984Y0029000D02*
Y0028920D01*
X0008562Y0018557D02*
X0008438D01*
X-0000281Y0029000D02*
Y0028920D01*
X0011399Y0018510D02*
Y0017006D01*
X-0000706Y0029000D02*
Y0028920D01*
X0003455Y0026598D02*
X0003203D01*
X0004603Y0029000D02*
Y0027592D01*
X0005250Y0028000D02*
Y0027627D01*
X0004297Y0027492D02*
Y0027340D01*
X0004470Y0027477D02*
X0004297D01*
X0004957Y0029000D02*
Y0027627D01*
X-0000824Y0027689D02*
X-0001588D01*
X0004745Y0029000D02*
Y0027627D01*
X-0000824Y0027760D02*
X-0001588D01*
X0013000Y0020327D02*
X0012369D01*
X0012744Y0026755D02*
Y0026422D01*
X0013000Y0020115D02*
X0012485D01*
X0013000Y0020185D02*
X0012443D01*
X0002055Y0017234D02*
Y0017000D01*
X0013000Y0020752D02*
X0012794D01*
X0013000Y0020044D02*
X0012514D01*
X0003562Y0018557D02*
X0002693D01*
X0003705Y0020752D02*
X0002653D01*
X0003705Y0020893D02*
X0002820D01*
X0003625Y0019265D02*
X0002640D01*
X0005524Y0017234D02*
Y0017000D01*
X0003459Y0019690D02*
X0002640D01*
X0003705Y0021177D02*
X0002941D01*
X0000314Y0023017D02*
X-0000330D01*
X0004816Y0017234D02*
Y0017000D01*
X0004957Y0017234D02*
Y0017000D01*
X0000922Y0029000D02*
Y0028920D01*
X0000221Y0017779D02*
X-0000533D01*
X0008426Y0018542D02*
Y0017000D01*
X0005311Y0017234D02*
Y0017000D01*
X0002550Y0029000D02*
Y0028915D01*
X0003596Y0018515D02*
X0002735D01*
X0011518Y0018628D02*
X0011481D01*
X0013000Y0018911D02*
X0012540D01*
X0012958Y0020916D02*
X0012339Y0020297D01*
X0013000Y0026500D02*
Y0026156D01*
Y0020823D02*
X0012865D01*
X0013000Y0026203D02*
X0012964D01*
X0003705Y0021035D02*
X0002904D01*
X0000332Y0023300D02*
X-0000388D01*
X-0001401Y0022734D02*
X-0001588D01*
X0002625Y0022830D02*
X0002363D01*
X0002692Y0022838D02*
Y0021724D01*
X0012589Y0026911D02*
X0012500D01*
X0004886Y0029000D02*
Y0027627D01*
X0012886Y0026614D02*
Y0026281D01*
X0002126Y0029000D02*
Y0028920D01*
X-0000847Y0029000D02*
Y0028920D01*
X0002904Y0020037D02*
Y0018515D01*
X0003541Y0018588D02*
Y0018515D01*
X-0000493Y0029000D02*
Y0028920D01*
X-0001697Y0028994D02*
Y0028844D01*
X0003258Y0021949D02*
Y0018515D01*
X0000356Y0029000D02*
Y0028920D01*
X0012801Y0026698D02*
X0012500D01*
X-0000695Y0020893D02*
X-0000814D01*
X-0003396Y0028994D02*
Y0027047D01*
X0004816Y0029000D02*
Y0027627D01*
X0007789Y0017413D02*
Y0017000D01*
X0001064Y0029000D02*
Y0028920D01*
X-0002242Y0026061D02*
X-0002508D01*
X-0002276Y0028144D02*
Y0028077D01*
X-0003268Y0027760D02*
X-0003750D01*
X-0002375Y0027689D02*
X-0002482D01*
X-0002375Y0027760D02*
X-0002482D01*
X-0002375Y0027831D02*
X-0002482D01*
X-0000824Y0026415D02*
X-0001348D01*
X-0000824Y0026486D02*
X-0001348D01*
X-0000824Y0026557D02*
X-0001348D01*
X0005250Y0028680D02*
X0002861D01*
X0003203Y0028397D02*
X0003044D01*
X0003705Y0020610D02*
X0002817D01*
X-0001272Y0029000D02*
Y0028920D01*
X0003046Y0022784D02*
Y0018515D01*
X0003705Y0020681D02*
X0002749D01*
X0005028Y0028972D02*
Y0027627D01*
X0013000Y0020681D02*
X0012723D01*
X-0001414Y0020580D02*
Y0020297D01*
X0013000Y0020610D02*
X0012652D01*
X-0002005Y0022673D02*
X-0001879Y0022547D01*
X0013000Y0026486D02*
X0012681D01*
X-0002508Y0020091D02*
Y0019250D01*
X-0003268Y0023088D02*
X-0003750D01*
X-0002375D02*
X-0002421D01*
X-0003402Y0023796D02*
X-0003750D01*
X-0001980Y0022673D02*
Y0022647D01*
X-0002406Y0022238D02*
X-0002508D01*
X-0002830Y0022662D02*
Y0022547D01*
X-0001838Y0022673D02*
Y0022547D01*
X-0001768Y0022673D02*
Y0022547D01*
X-0001697Y0022673D02*
Y0022547D01*
X0000993Y0022567D02*
Y0022545D01*
X0000639Y0022605D02*
Y0022545D01*
X0000710Y0022579D02*
Y0022545D01*
X0000781Y0022562D02*
Y0022545D01*
X0000568Y0022644D02*
Y0022545D01*
X-0002830Y0027162D02*
Y0027047D01*
X0000851Y0022555D02*
Y0022545D01*
X0003080Y0022734D02*
X0002291D01*
X-0001287Y0022309D02*
X-0001348D01*
X-0001372Y0021170D02*
X-0001588D01*
X-0003402Y0021672D02*
X-0003750D01*
X0003080Y0022592D02*
X0002080D01*
X-0001365Y0021177D02*
X-0001588D01*
X-0001208Y0022166D02*
X-0000711Y0021669D01*
X-0001295Y0022451D02*
X-0001348D01*
X-0001261Y0022238D02*
X-0001348D01*
X0000456Y0023513D02*
X-0000596D01*
X-0002830Y0022663D02*
X-0003750D01*
X-0003254Y0021453D02*
Y0021327D01*
X-0003402Y0024504D02*
X-0003750D01*
X-0001497Y0022830D02*
X-0001295Y0022628D01*
X0001913Y0017234D02*
Y0017000D01*
X0000539Y0022663D02*
X-0000246D01*
X-0002263Y0024346D02*
Y0023577D01*
X-0001414Y0023703D02*
Y0023685D01*
X-0002760Y0022592D02*
X-0003750D01*
X0000535Y0023583D02*
X-0000666D01*
X0013000Y0020469D02*
X0012511D01*
X0009205Y0018374D02*
Y0017000D01*
X-0000352Y0023959D02*
Y0023237D01*
X0009134Y0018351D02*
Y0017000D01*
X-0001210Y0022168D02*
X-0001348D01*
X0005736Y0017234D02*
Y0017000D01*
X0002338Y0029000D02*
Y0028920D01*
X0013000Y0020893D02*
X0012936D01*
X-0000628Y0020823D02*
X-0000885D01*
X0002833Y0029000D02*
Y0028708D01*
X-0000139Y0029000D02*
Y0028920D01*
X-0001838Y0023703D02*
Y0023577D01*
X-0003402Y0024221D02*
X-0003750D01*
X-0002375Y0025424D02*
X-0002482D01*
X-0002375Y0025495D02*
X-0002482D01*
X-0002375Y0025566D02*
X-0002482D01*
X-0000918Y0028330D02*
Y0025210D01*
X0003754Y0017234D02*
Y0017000D01*
X0003252Y0021955D02*
X0002659D01*
X0000568Y0023959D02*
Y0023606D01*
X0001233Y0024150D02*
X0001143D01*
X0002763Y0026945D02*
Y0025779D01*
X0003092Y0022168D02*
X0002499D01*
X0003117Y0022107D02*
Y0018515D01*
X0003683Y0026150D02*
Y0025730D01*
X0003754Y0026079D02*
Y0025677D01*
X0003825Y0026008D02*
Y0025601D01*
X-0003402Y0025990D02*
X-0003750D01*
X0002955Y0025636D02*
X0002905D01*
X0003830Y0026003D02*
Y0025594D01*
X-0001414Y0023565D02*
Y0023420D01*
X0000427Y0023959D02*
Y0023478D01*
X0003046Y0026752D02*
Y0025716D01*
X-0000824Y0027619D02*
X-0001588D01*
X-0000281Y0026266D02*
Y0026166D01*
X0000357Y0024504D02*
X0000238D01*
X-0000239Y0026208D02*
X-0000362Y0026086D01*
X0000357Y0024575D02*
X0000238D01*
X0000357Y0024645D02*
X0000238D01*
X-0000423Y0026266D02*
Y0026000D01*
X0002324Y0028234D02*
X-0000824D01*
Y0026266D01*
X-0000352D02*
Y0026096D01*
X0002324Y0028234D02*
Y0026266D01*
X-0000427Y0025990D02*
X-0001348D01*
X-0000549Y0025730D02*
Y0023959D01*
X0000238D02*
X-0000549D01*
X0003830Y0025990D02*
X0002551D01*
X0000238Y0025705D02*
Y0023959D01*
X-0002334Y0024417D02*
Y0023577D01*
X0001205Y0025705D02*
Y0024122D01*
X0001143Y0025705D02*
Y0024060D01*
X0005250Y0027627D02*
X0004742D01*
X0000993Y0023959D02*
Y0023910D01*
X0000922Y0023959D02*
Y0023839D01*
X0000851Y0023959D02*
Y0023768D01*
X0000710Y0023959D02*
Y0023671D01*
X-0000549Y0024150D02*
X-0000830D01*
X0001402Y0022805D02*
X0001347D01*
X0001459Y0022734D02*
X0001291D01*
X0001539Y0022663D02*
X0001210D01*
X0001670Y0022592D02*
X0001080D01*
X0003034Y0025707D02*
X0002835D01*
X0000781Y0023959D02*
Y0023698D01*
X-0000549Y0024858D02*
X-0000830D01*
X0003606Y0021601D02*
X0002824D01*
X0002892Y0022946D02*
X0002864D01*
X0003018Y0022805D02*
X0002347D01*
X-0003402Y0021531D02*
X-0003750D01*
X-0002546Y0021453D02*
Y0021327D01*
X-0002617Y0021453D02*
Y0021327D01*
X-0002688Y0021453D02*
Y0021327D01*
X-0002759Y0021453D02*
Y0021327D01*
X-0002830Y0021453D02*
Y0021327D01*
X-0002900Y0021453D02*
Y0021327D01*
X-0002971Y0021453D02*
Y0021327D01*
X-0003042Y0021453D02*
Y0021327D01*
X-0003113Y0021453D02*
Y0021327D01*
X-0003184Y0021453D02*
Y0021327D01*
X-0002375Y0021318D02*
X-0002482D01*
X-0002375Y0021035D02*
X-0002482D01*
X-0002375Y0020964D02*
X-0002482D01*
X0003080Y0022309D02*
X0002358D01*
X-0002375Y0020893D02*
X-0002476D01*
X-0002375Y0020823D02*
X-0002405D01*
X0003080Y0022380D02*
X0002287D01*
X-0001588Y0020423D02*
X-0002005D01*
X0003187Y0022020D02*
Y0018515D01*
X0001772Y0022564D02*
Y0022545D01*
X-0000515Y0019124D02*
X-0001124D01*
X-0003402Y0021601D02*
X-0003750D01*
X-0001626Y0021453D02*
Y0021327D01*
X-0001697Y0021453D02*
Y0021327D01*
X-0001768Y0021453D02*
Y0021327D01*
X-0001838Y0021453D02*
Y0021327D01*
X-0001909Y0021453D02*
Y0021327D01*
X-0001980Y0021453D02*
Y0021327D01*
X-0002051Y0021453D02*
Y0021327D01*
X-0002122Y0021453D02*
Y0021327D01*
X-0000706Y0020907D02*
Y0020593D01*
X-0000738Y0020955D02*
X-0000753D01*
X-0000777Y0020931D02*
Y0020469D01*
X-0001224Y0021318D02*
X-0001588D01*
X-0000528Y0020752D02*
X-0000956D01*
X-0001485Y0020580D02*
Y0020297D01*
X-0002375Y0023513D02*
X-0002482D01*
X-0002375Y0023442D02*
X-0002482D01*
X-0002375Y0023371D02*
X-0002482D01*
X-0002375Y0023300D02*
X-0002482D01*
X-0002375Y0023230D02*
X-0002482D01*
X-0002375Y0023159D02*
X-0002482D01*
X-0003402Y0024787D02*
X-0003750D01*
X-0002546Y0023703D02*
Y0023577D01*
X-0002617Y0023703D02*
Y0023577D01*
X-0002688Y0023703D02*
Y0023577D01*
X-0002759Y0023703D02*
Y0023577D01*
X-0002830Y0023703D02*
Y0023577D01*
X-0002900Y0023703D02*
Y0023577D01*
X-0002971Y0023703D02*
Y0023577D01*
X-0003402Y0024645D02*
X-0003750D01*
X-0003113Y0023703D02*
Y0023577D01*
X-0002334Y0022167D02*
Y0021327D01*
X-0002335Y0022168D02*
X-0002508D01*
X-0002264Y0022097D02*
X-0002508D01*
X-0000706Y0026266D02*
Y0023623D01*
X-0000564Y0026266D02*
Y0023481D01*
X-0003402Y0024433D02*
X-0003750D01*
X0000459Y0022734D02*
X-0000317D01*
X0000285Y0025705D02*
Y0022545D01*
X0000949Y0023867D02*
X-0000830D01*
X0000360Y0023371D02*
X-0000454D01*
X-0003402Y0019761D02*
X-0003750D01*
X-0001697Y0023703D02*
Y0023577D01*
X-0001768Y0023703D02*
Y0023577D01*
X-0003402Y0023867D02*
X-0003750D01*
X-0001909Y0023703D02*
Y0023577D01*
X-0001980Y0023703D02*
Y0023577D01*
X-0002051Y0023703D02*
Y0023577D01*
X-0002122Y0023703D02*
Y0023577D01*
X0000314Y0023230D02*
X-0000349D01*
X0000073Y0017927D02*
Y0017000D01*
X-0001295Y0022522D02*
X-0001348D01*
X0000361Y0022876D02*
X-0000330D01*
X-0000476Y0018486D02*
X-0001000D01*
X-0002546Y0025953D02*
Y0025827D01*
X-0002617Y0025953D02*
Y0025827D01*
X-0002688Y0025953D02*
Y0025827D01*
X-0002759Y0025953D02*
Y0025827D01*
X-0002830Y0025953D02*
Y0025827D01*
X-0002900Y0025953D02*
Y0025827D01*
X-0002971Y0025953D02*
Y0025827D01*
X-0003042Y0025953D02*
Y0025827D01*
X-0003113Y0025953D02*
Y0025827D01*
X-0003184Y0025953D02*
Y0025827D01*
X-0002375Y0025778D02*
X-0002482D01*
X-0002375Y0025707D02*
X-0002482D01*
X-0002375Y0025636D02*
X-0002482D01*
X-0000447Y0025920D02*
X-0003750D01*
X-0002375Y0025353D02*
X-0002436D01*
X-0000549Y0024291D02*
X-0000830D01*
X-0002242Y0025990D02*
X-0002508D01*
X-0001626Y0025953D02*
Y0025827D01*
X-0001697Y0025953D02*
Y0025827D01*
X-0001768Y0025953D02*
Y0025827D01*
X-0001838Y0025953D02*
Y0025827D01*
X-0001909Y0025953D02*
Y0025827D01*
X-0001980Y0025953D02*
Y0025827D01*
X-0002051Y0025953D02*
Y0025827D01*
X-0001343Y0022676D02*
Y0021199D01*
X0001559Y0029000D02*
Y0028920D01*
X0000497Y0023959D02*
Y0023553D01*
X-0000139Y0023959D02*
Y0022557D01*
X0000357Y0025705D02*
X0000238D01*
X-0000549Y0025707D02*
X-0001588D01*
X0002455Y0028185D02*
X0002324D01*
X-0000549Y0025566D02*
X-0001273D01*
X-0000549Y0025495D02*
X-0001203D01*
X-0000549Y0025424D02*
X-0001132D01*
X-0001588Y0025827D02*
Y0025670D01*
X-0000549Y0025282D02*
X-0000990D01*
X-0001980Y0028994D02*
Y0028562D01*
X-0002546Y0028994D02*
Y0028077D01*
X-0002617Y0028994D02*
Y0028077D01*
X-0002688Y0028994D02*
Y0028077D01*
X-0002759Y0028994D02*
Y0028077D01*
X-0002830Y0028994D02*
Y0028077D01*
X-0002900Y0028994D02*
Y0028077D01*
X-0002971Y0028994D02*
Y0028077D01*
X-0003042Y0028994D02*
Y0028077D01*
X-0003113Y0028994D02*
Y0028077D01*
X-0003184Y0028994D02*
Y0028077D01*
X-0002375Y0028043D02*
X-0002482D01*
X-0002375Y0027973D02*
X-0002482D01*
X-0002375Y0027902D02*
X-0002482D01*
X-0002295Y0026628D02*
X-0002508D01*
X-0002375Y0027619D02*
X-0002451D01*
X-0001588Y0027173D02*
X-0002005D01*
X-0001414Y0028294D02*
Y0027047D01*
X-0003268Y0027689D02*
X-0003750D01*
X-0001343Y0029000D02*
Y0028920D01*
X-0001768Y0028994D02*
Y0028774D01*
X-0001838Y0028994D02*
Y0028703D01*
X-0001909Y0028994D02*
Y0028633D01*
X0010196Y0017000D02*
X0000053D01*
X-0000824Y0026274D02*
X-0001348D01*
X-0000824Y0028043D02*
X-0001588D01*
X-0000824Y0027973D02*
X-0001588D01*
X-0000824Y0027902D02*
X-0001588D01*
X0005250Y0028043D02*
X0004297D01*
X0005250Y0027973D02*
X0004297D01*
X0005250Y0027902D02*
X0004297D01*
X-0000824Y0027831D02*
X-0001588D01*
X-0000824Y0027548D02*
X-0001588D01*
X-0000824Y0027477D02*
X-0001588D01*
X-0000824Y0027406D02*
X-0001588D01*
X-0000824Y0027335D02*
X-0001588D01*
X-0000824Y0027265D02*
X-0001588D01*
X0002455Y0027689D02*
X0002324D01*
X-0003268Y0027619D02*
X-0003750D01*
X-0003268Y0027548D02*
X-0003750D01*
X0005250Y0028610D02*
X0004297D01*
X0005250Y0028539D02*
X0004297D01*
X0005250Y0028468D02*
X0004297D01*
X0009629Y0018480D02*
Y0017000D01*
X0005250Y0028185D02*
X0004297D01*
X0005250Y0028114D02*
X0004297D01*
X0005250Y0027831D02*
X0004297D01*
X0004249Y0029000D02*
Y0028652D01*
X0004179Y0029000D02*
Y0028652D01*
X0004108Y0029000D02*
Y0028652D01*
X0004037Y0029000D02*
Y0028652D01*
X0003966Y0029000D02*
Y0028652D01*
X0003895Y0029000D02*
Y0028652D01*
X0003825Y0029000D02*
Y0028652D01*
X0003754Y0029000D02*
Y0028652D01*
X0003683Y0029000D02*
Y0028652D01*
X0003612Y0029000D02*
Y0028652D01*
X0003541Y0029000D02*
Y0028652D01*
X0003471Y0029000D02*
Y0028652D01*
X0003400Y0029000D02*
Y0028652D01*
X0003329Y0029000D02*
Y0028652D01*
X-0003268Y0028043D02*
X-0003750D01*
X0004249Y0027758D02*
Y0027492D01*
X0004179Y0027758D02*
Y0027492D01*
X0004108Y0027758D02*
Y0027492D01*
X0004037Y0027758D02*
Y0027492D01*
X0003966Y0027758D02*
Y0027492D01*
X0003895Y0027758D02*
Y0027492D01*
X0003825Y0027758D02*
Y0027492D01*
X0003754Y0027758D02*
Y0027492D01*
X0003683Y0027758D02*
Y0027492D01*
X0003612Y0027758D02*
Y0027492D01*
X0003541Y0027758D02*
Y0027492D01*
X0003471Y0027758D02*
Y0027492D01*
X0003400Y0027758D02*
Y0027492D01*
X0003329Y0027758D02*
Y0027492D01*
X-0000824Y0028185D02*
X-0001523D01*
X0002455Y0027619D02*
X0002324D01*
X-0003402Y0020256D02*
X-0003750D01*
X-0000564Y0019774D02*
Y0018247D01*
X-0000635Y0019829D02*
Y0018247D01*
X-0000706Y0019907D02*
Y0018247D01*
X0001020Y0023937D02*
X-0000830D01*
X-0000281Y0023959D02*
Y0022698D01*
X-0001588Y0020580D02*
Y0020423D01*
X0000305Y0023088D02*
X-0000330D01*
X-0001588Y0021327D02*
Y0021170D01*
X-0000847Y0020860D02*
Y0018247D01*
X-0000918Y0020789D02*
Y0018247D01*
X-0000824Y0026698D02*
X-0001348D01*
X-0003254Y0023703D02*
Y0023577D01*
X-0003402Y0021955D02*
X-0003750D01*
X-0003268Y0027265D02*
X-0003750D01*
X-0003268Y0024999D02*
X-0003750D01*
X-0003268Y0023159D02*
X-0003750D01*
X-0002005Y0020423D02*
X-0001879Y0020297D01*
X-0002508Y0020091D02*
X-0002242Y0019824D01*
X-0000423Y0018422D02*
Y0017173D01*
X-0003402Y0019407D02*
X-0003657D01*
X-0003402Y0019265D02*
X-0003515D01*
X-0000507Y0018557D02*
X-0001000D01*
X0005178Y0028822D02*
X0002720D01*
X-0000133Y0018133D02*
X-0000533D01*
X0000079Y0017920D02*
X-0000533D01*
X0000150Y0017849D02*
X-0000533D01*
X0000291Y0017708D02*
X-0000533D01*
X0000362Y0017637D02*
X-0000533D01*
X0000504Y0017495D02*
X-0000533D01*
X0005250Y0028256D02*
X0004297D01*
X-0002334Y0028994D02*
Y0028077D01*
X0008851Y0018355D02*
Y0017000D01*
X0012321Y0017071D02*
X-0000321D01*
X0003705Y0020416D02*
X0003459D01*
X0000851Y0029000D02*
Y0028920D01*
X0003677Y0021531D02*
X0002872D01*
X0003181Y0022026D02*
X0002628D01*
X0003705Y0020469D02*
X0002902D01*
X0003541Y0021666D02*
Y0020416D01*
X0003683Y0021525D02*
Y0020416D01*
X0003705Y0021460D02*
X0002906D01*
X0003166Y0022041D02*
X0003705Y0021503D01*
X0003123Y0022097D02*
X0002570D01*
X0003080Y0022761D02*
Y0022250D01*
X0000497Y0029000D02*
Y0028920D01*
X-0003402Y0026769D02*
X-0003750D01*
X0003203Y0026750D02*
X0003080D01*
X0005240Y0028759D02*
Y0027627D01*
X0002455Y0027548D02*
X0002324D01*
X0004541D02*
X0003045D01*
X0004672Y0027619D02*
X0003045D01*
X0002975Y0026769D02*
X0002324D01*
X0002541Y0027166D02*
X0002869Y0026839D01*
X0003045Y0028375D02*
Y0027497D01*
X0003203Y0027492D02*
Y0027340D01*
X0000497Y0028330D02*
Y0028234D01*
X0000568Y0029000D02*
Y0028920D01*
X0003203Y0028256D02*
X0003045D01*
X0000639Y0029000D02*
Y0028920D01*
X0000710Y0029000D02*
Y0028920D01*
X0000781Y0029000D02*
Y0028920D01*
X0003203Y0028468D02*
X0003030D01*
X0002517Y0027194D02*
X0002324D01*
X0002476Y0027265D02*
X0002324D01*
X0002457Y0027335D02*
X0002324D01*
X-0001485Y0028223D02*
Y0027047D01*
X-0001626Y0028994D02*
Y0028891D01*
X0003203Y0028539D02*
X0002995D01*
X0002500Y0028920D02*
X-0001500D01*
X-0000824Y0028114D02*
X-0001593D01*
X-0002122Y0028994D02*
Y0028420D01*
X-0002263Y0028994D02*
Y0028230D01*
X-0002003Y0028539D02*
X-0003750D01*
X-0002254Y0028256D02*
X-0003750D01*
X-0000423Y0029000D02*
Y0028920D01*
X0003203Y0028610D02*
X0002932D01*
X0002455Y0028253D02*
Y0027375D01*
X-0002051Y0028994D02*
Y0028491D01*
X-0003254Y0028994D02*
Y0028077D01*
X-0001588D02*
X-0001630D01*
X-0002192Y0028994D02*
Y0028349D01*
X0000214Y0017785D02*
Y0017000D01*
X-0000777Y0020030D02*
Y0018247D01*
X-0000069Y0023959D02*
Y0022545D01*
X-0000210Y0023959D02*
Y0022627D01*
X0004462Y0029000D02*
Y0027469D01*
X0005250Y0027689D02*
X0003045D01*
X-0003268Y0027831D02*
X-0003750D01*
X0001488Y0017234D02*
Y0017000D01*
X0000922Y0017234D02*
Y0017000D01*
X0007500Y0017234D02*
X0000875D01*
X-0003268Y0020469D02*
X-0003750D01*
X0006444Y0017234D02*
Y0017000D01*
X0000645Y0017354D02*
X-0000533D01*
X0000575Y0017425D02*
X-0000533D01*
X0006373Y0017234D02*
Y0017000D01*
X0002975Y0022843D02*
Y0018515D01*
X0003329Y0021879D02*
Y0018515D01*
X0002378Y0028330D02*
X0002455Y0028253D01*
X0000427Y0028330D02*
Y0028234D01*
X0005248Y0028751D02*
X0002791D01*
X0002692Y0029000D02*
Y0028849D01*
X-0002476Y0020058D02*
Y0019250D01*
X0000993Y0029000D02*
Y0028920D01*
X0003045Y0027497D02*
X0003202Y0027340D01*
X0008265Y0018403D02*
Y0018000D01*
X0013000Y0019973D02*
X0012532D01*
X0005250Y0027760D02*
X0003045D01*
X0002708Y0028833D02*
X0002956Y0028586D01*
X0004320Y0029000D02*
Y0027340D01*
X0005107Y0028893D02*
X0002623D01*
X0003455Y0026598D02*
Y0026500D01*
Y0026557D02*
X0002324D01*
X0004328Y0027335D02*
X0004297D01*
X0003455Y0026486D02*
X0002324D01*
X0002621Y0027086D02*
Y0025921D01*
X0009891Y0018345D02*
X0009109D01*
X0006798Y0017234D02*
Y0017000D01*
X0008623Y0018486D02*
X0008376D01*
X0013000Y0018062D02*
X0008265D01*
X0013000Y0019124D02*
X0012480D01*
X0007718Y0017343D02*
Y0017000D01*
X0012958Y0017708D02*
X0008083D01*
X0003705Y0020823D02*
X0002753D01*
X0005665Y0017234D02*
Y0017000D01*
X0008709Y0018419D02*
Y0017000D01*
X0002975Y0029000D02*
Y0028565D01*
X0013000Y0018203D02*
X0008265D01*
X-0000062Y0018062D02*
X-0000533D01*
X0001205Y0017234D02*
Y0017000D01*
X0000851Y0017235D02*
Y0017000D01*
X0002975Y0026769D02*
Y0025657D01*
X0003489Y0019053D02*
X0002640D01*
X0001418Y0017234D02*
Y0017000D01*
X0013000Y0017779D02*
X0008154D01*
X-0000515Y0019265D02*
X-0001348D01*
X0001559Y0017234D02*
Y0017000D01*
X0004462Y0017234D02*
Y0017000D01*
X0005594Y0017234D02*
Y0017000D01*
X0000568Y0017431D02*
Y0017000D01*
X0003459Y0019619D02*
X0002640D01*
X0003459Y0020044D02*
X0002907D01*
X0013000Y0017849D02*
X0008219D01*
X0002640Y0018610D02*
X0002735Y0018515D01*
X0003469Y0018770D02*
X0002640D01*
X0003460Y0018840D02*
X0002640D01*
X0003460Y0018911D02*
X0002640D01*
X0012604Y0017354D02*
X0007729D01*
X0002640Y0019745D02*
Y0018610D01*
X0002763Y0017234D02*
Y0017000D01*
X0003046Y0029000D02*
Y0027496D01*
X0000710Y0017292D02*
Y0017000D01*
X0003459Y0019407D02*
X0002640D01*
X0003717Y0019336D02*
X0002640D01*
X0005170Y0017234D02*
Y0017000D01*
X0001842Y0029000D02*
Y0028920D01*
X0000285Y0029000D02*
Y0028920D01*
X-0000204Y0018203D02*
X-0000533D01*
X0002409Y0029000D02*
Y0028920D01*
X0008992Y0018334D02*
Y0017000D01*
X-0000918Y0029000D02*
Y0028920D01*
X0008638Y0018472D02*
Y0017000D01*
X0002763Y0019831D02*
Y0018515D01*
X0001134Y0029000D02*
Y0028920D01*
X0005028Y0017234D02*
Y0017000D01*
X-0001201Y0022159D02*
Y0021341D01*
X0001913Y0029000D02*
Y0028920D01*
X-0002273Y0028185D02*
X-0003750D01*
X0002833Y0019910D02*
Y0018515D01*
X0003830Y0025707D02*
X0003716D01*
X0008891Y0018345D02*
X0008265D01*
X0002692Y0019775D02*
Y0018558D01*
X0001488Y0029000D02*
Y0028920D01*
X-0001378Y0028330D02*
X-0001630Y0028077D01*
X0001205Y0029000D02*
Y0028920D01*
X-0001623Y0028893D02*
X-0003607D01*
X0001347Y0029000D02*
Y0028920D01*
X0001418Y0029000D02*
Y0028920D01*
X0003203Y0028327D02*
X0003045D01*
X0003203Y0028043D02*
X0003045D01*
X0003203Y0027902D02*
X0003045D01*
X0013000Y0018345D02*
X0012109D01*
X-0001343Y0023426D02*
Y0023418D01*
X-0001500Y0025670D02*
X-0001588D01*
X-0002263Y0026596D02*
Y0025827D01*
X-0002508Y0026841D02*
Y0025953D01*
X-0000549Y0024716D02*
X-0000830D01*
X-0000549Y0024929D02*
X-0000830D01*
X-0001201Y0028330D02*
Y0025494D01*
X-0001131Y0028330D02*
Y0025423D01*
X-0001414Y0025953D02*
Y0025657D01*
X-0002122Y0025953D02*
Y0025827D01*
X0000305Y0023159D02*
X-0000332D01*
X-0001291Y0025583D02*
X-0000919Y0025211D01*
X-0001485Y0025953D02*
Y0025669D01*
X-0001497Y0022830D02*
X-0001588D01*
X0000662Y0023654D02*
X-0000737D01*
X-0001343Y0028330D02*
Y0025625D01*
X-0000069Y0029000D02*
Y0028920D01*
X0003612Y0021595D02*
Y0020416D01*
X-0000210Y0029000D02*
Y0028920D01*
X-0000564Y0029000D02*
Y0028920D01*
X-0000451Y0025730D02*
X-0000549D01*
X0003830Y0025636D02*
X0003795D01*
X0003467Y0026415D02*
X0002324D01*
X0003471Y0026405D02*
Y0025812D01*
X0003187Y0026750D02*
Y0025789D01*
X0002692Y0027016D02*
Y0025850D01*
X0003541Y0026291D02*
X0003830Y0026003D01*
X-0000549Y0025070D02*
X-0000838D01*
X0003705Y0021318D02*
X0002941D01*
X-0000549Y0024008D02*
X-0000830D01*
X0003630Y0026203D02*
X0002339D01*
X0003400Y0026598D02*
Y0025820D01*
X0003329Y0026598D02*
Y0025819D01*
X0003258Y0026598D02*
Y0025808D01*
X0003203Y0026750D02*
Y0026598D01*
X0003830Y0025849D02*
X0002693D01*
X0002333Y0026208D02*
X0002932Y0025610D01*
X0002055Y0022583D02*
Y0022540D01*
X0002126Y0022612D02*
Y0022517D01*
X-0002840Y0020423D02*
X-0002714Y0020297D01*
X-0002242Y0019250D02*
X-0002508D01*
X-0002390Y0019973D02*
X-0002508D01*
X-0002319Y0019902D02*
X-0002508D01*
X-0002242Y0019761D02*
X-0002508D01*
X-0002242Y0019690D02*
X-0002508D01*
X-0002242Y0019619D02*
X-0002508D01*
X-0002461Y0020044D02*
X-0002508D01*
X0002196Y0022653D02*
Y0022470D01*
X0001842Y0022555D02*
Y0022545D01*
X-0002759Y0020342D02*
Y0020297D01*
X-0002900Y0020423D02*
Y0020297D01*
X-0002971Y0020423D02*
Y0020297D01*
X-0003042Y0020423D02*
Y0020297D01*
X-0003113Y0020423D02*
Y0020297D01*
X-0003184Y0020423D02*
Y0020297D01*
X-0003254Y0020423D02*
Y0020297D01*
X-0003325Y0021453D02*
Y0020297D01*
X-0003396Y0021453D02*
Y0020297D01*
X-0002242Y0019548D02*
X-0002508D01*
X-0002242Y0019478D02*
X-0002508D01*
X-0002242Y0019407D02*
X-0002508D01*
X-0002242Y0019336D02*
X-0002508D01*
X-0002242Y0019265D02*
X-0002508D01*
X-0000820Y0020256D02*
X-0001348D01*
X-0001250Y0019250D02*
X-0001348D01*
X-0001838Y0020423D02*
Y0020297D01*
X-0000749Y0019973D02*
X-0001348D01*
X-0000702Y0019902D02*
X-0001348D01*
X-0002830Y0020412D02*
Y0020297D01*
X-0003268Y0022946D02*
X-0003750D01*
X-0001980Y0020423D02*
Y0020397D01*
X-0000815Y0020327D02*
X-0001910D01*
X-0000801Y0020398D02*
X-0001981D01*
X-0000638Y0019832D02*
X-0001348D01*
X-0000544Y0019761D02*
X-0001348D01*
X-0000515Y0018770D02*
X-0001000D01*
X-0000515Y0019690D02*
X-0001348D01*
X-0000515Y0019619D02*
X-0001348D01*
X-0000515Y0019548D02*
X-0001348D01*
X-0000515Y0018911D02*
X-0001000D01*
X-0003325Y0023703D02*
Y0022547D01*
X-0003396Y0023703D02*
Y0022547D01*
X-0002242Y0021814D02*
X-0002508D01*
X-0002242Y0021743D02*
X-0002508D01*
X-0002242Y0021672D02*
X-0002508D01*
X-0002242Y0021601D02*
X-0002508D01*
X-0002242Y0021531D02*
X-0002508D01*
X-0002242Y0021460D02*
X-0002508D01*
X-0002249Y0019832D02*
X-0002508D01*
X-0002476Y0024558D02*
Y0023143D01*
X-0002405Y0024488D02*
Y0023072D01*
X-0002759Y0022592D02*
Y0022547D01*
X-0002900Y0022673D02*
Y0022547D01*
X-0002971Y0022673D02*
Y0022547D01*
X-0003042Y0022673D02*
Y0022547D01*
X-0003113Y0022673D02*
Y0022547D01*
X-0003184Y0022673D02*
Y0022547D01*
X-0003254Y0022673D02*
Y0022547D01*
X-0002840Y0022673D02*
X-0002714Y0022547D01*
X-0001909Y0022673D02*
Y0022576D01*
X0012500Y0026667D02*
X0012956Y0026211D01*
X-0002476Y0022309D02*
X-0002508D01*
X-0002242Y0022026D02*
X-0002508D01*
X-0002242Y0021955D02*
X-0002508D01*
X-0002242Y0021884D02*
X-0002508D01*
X-0000989Y0020719D02*
Y0018247D01*
X-0001414Y0022747D02*
Y0022547D01*
X-0000493Y0018519D02*
Y0017243D01*
X-0000856Y0021814D02*
X-0001348D01*
X-0000785Y0021743D02*
X-0001348D01*
X-0000699Y0021601D02*
X-0001348D01*
X-0001131Y0022088D02*
Y0021411D01*
X-0000423Y0023959D02*
Y0023340D01*
X0000356Y0022888D02*
Y0022545D01*
X-0001068Y0022026D02*
X-0001348D01*
X-0003325Y0025953D02*
Y0024797D01*
X-0003396Y0025953D02*
Y0024797D01*
X-0002840Y0024923D02*
X-0002714Y0024797D01*
X-0002405Y0026738D02*
Y0025322D01*
X-0002334Y0026667D02*
Y0025827D01*
X-0002759Y0024842D02*
Y0024797D01*
X-0002900Y0024923D02*
Y0024797D01*
X-0002971Y0024923D02*
Y0024797D01*
X-0003042Y0024923D02*
Y0024797D01*
X-0002830Y0024912D02*
Y0024797D01*
X-0003113Y0024923D02*
Y0024797D01*
X-0003184Y0024923D02*
Y0024797D01*
X-0002492Y0024575D02*
X-0002508D01*
X-0002421Y0024504D02*
X-0002508D01*
X-0002350Y0024433D02*
X-0002508D01*
X-0002242Y0024291D02*
X-0002508D01*
X-0002242Y0024221D02*
X-0002508D01*
X-0002242Y0024150D02*
X-0002508D01*
X-0002242Y0024079D02*
X-0002508D01*
X-0002242Y0024008D02*
X-0002508D01*
X-0002242Y0023937D02*
X-0002508D01*
X-0002242Y0023867D02*
X-0002508D01*
X-0002242Y0023796D02*
X-0002508D01*
X-0002242Y0023725D02*
X-0002508D01*
X-0003254Y0024923D02*
Y0024797D01*
X-0000549Y0025141D02*
X-0000866D01*
X0002584Y0027123D02*
X0002324D01*
X-0002279Y0024362D02*
X-0002508D01*
X-0000549Y0025636D02*
X-0001363D01*
X-0000451Y0025875D02*
Y0025730D01*
X-0001420Y0023703D02*
X-0002242D01*
X-0000549Y0024433D02*
X-0000830D01*
X-0000549Y0024362D02*
X-0000830D01*
X0000879Y0023796D02*
X-0000830D01*
X0000357Y0025705D02*
Y0023959D01*
X-0000824Y0026981D02*
X-0001348D01*
X-0000824Y0026911D02*
X-0001348D01*
X-0000824Y0026840D02*
X-0001348D01*
X-0000824Y0026769D02*
X-0001348D01*
X-0001272Y0028330D02*
Y0025564D01*
X0000427Y0029000D02*
Y0028920D01*
X0002550Y0027157D02*
Y0025992D01*
X-0001626Y0027173D02*
Y0027047D01*
X-0001697Y0027173D02*
Y0027047D01*
X-0001768Y0027173D02*
Y0027047D01*
X-0001838Y0027173D02*
Y0027047D01*
X0012532Y0026968D02*
Y0026635D01*
X-0001909Y0027173D02*
Y0027076D01*
X-0001980Y0027173D02*
Y0027147D01*
X-0002840Y0027173D02*
X-0002714Y0027047D01*
X-0002508Y0026841D02*
X-0002242Y0026574D01*
X-0002476Y0026808D02*
Y0025393D01*
X-0002405Y0028994D02*
Y0027572D01*
X-0001485Y0028995D02*
Y0028920D01*
X-0002436Y0026769D02*
X-0002508D01*
X-0002365Y0026698D02*
X-0002508D01*
X-0002242Y0026557D02*
X-0002508D01*
X-0002242Y0026486D02*
X-0002508D01*
X-0002242Y0026415D02*
X-0002508D01*
X-0002242Y0026344D02*
X-0002508D01*
X-0002242Y0026274D02*
X-0002508D01*
X-0002242Y0026203D02*
X-0002508D01*
X-0002005Y0027173D02*
X-0001879Y0027047D01*
X0013000Y0019478D02*
X0012367D01*
X-0003325Y0028994D02*
Y0027047D01*
X-0002790Y0027123D02*
X-0003750D01*
X-0000824Y0027052D02*
X-0001885D01*
X-0000824Y0027123D02*
X-0001956D01*
X-0002759Y0027092D02*
Y0027047D01*
X-0002900Y0027173D02*
Y0027047D01*
X-0002971Y0027173D02*
Y0027047D01*
X-0003042Y0027173D02*
Y0027047D01*
X-0003113Y0027173D02*
Y0027047D01*
X-0003184Y0027173D02*
Y0027047D01*
X-0003254Y0027173D02*
Y0027047D01*
X-0003402Y0020185D02*
X-0003750D01*
X-0000706Y0021664D02*
Y0021593D01*
X0000427Y0022772D02*
Y0022545D01*
X-0000714Y0021672D02*
X-0001348D01*
X-0001485Y0022817D02*
Y0022547D01*
X-0003402Y0026061D02*
X-0003750D01*
X-0002775Y0024858D02*
X-0003750D01*
X-0001485Y0021453D02*
Y0021170D01*
X-0003402Y0021743D02*
X-0003750D01*
X-0000635Y0020829D02*
Y0020671D01*
X0000214Y0023959D02*
Y0022545D01*
X0000143Y0023959D02*
Y0022545D01*
X0000073Y0023959D02*
Y0022545D01*
X0000002Y0023959D02*
Y0022545D01*
X-0000927Y0021884D02*
X-0001348D01*
X0001984Y0022565D02*
Y0022545D01*
X0000670Y0022592D02*
X-0000175D01*
X0001064Y0022586D02*
Y0022545D01*
X-0001295Y0022592D02*
X-0001925D01*
X-0003402Y0019902D02*
X-0003750D01*
X0001134Y0022617D02*
Y0022545D01*
X-0001330Y0022663D02*
X-0001996D01*
X0001701Y0022581D02*
Y0022545D01*
X0001842Y0017234D02*
Y0017000D01*
X0001205Y0022660D02*
Y0022545D01*
X0000922Y0022556D02*
Y0022545D01*
X0000497Y0022697D02*
Y0022545D01*
X0002338Y0017234D02*
Y0017000D01*
X-0000997Y0021955D02*
X-0001348D01*
X0003080Y0022663D02*
X0002210D01*
X0003323Y0021884D02*
X0002670D01*
X0003705Y0021247D02*
X0002945D01*
X0004674Y0029000D02*
Y0027619D01*
X0003471Y0021737D02*
Y0020416D01*
X0003394Y0021814D02*
X0002670D01*
X0003705Y0021389D02*
X0002928D01*
X0003258Y0017234D02*
Y0017000D01*
X0002904Y0022927D02*
Y0021463D01*
X0002621Y0029000D02*
Y0028894D01*
X0002409Y0022830D02*
Y0022258D01*
X0003465Y0021743D02*
X0002670D01*
X0003705Y0020964D02*
X0002869D01*
X0003459Y0020398D02*
X0002926D01*
X0003459Y0020327D02*
X0002940D01*
X0003459Y0020256D02*
X0002945D01*
X0003459Y0020185D02*
X0002942D01*
X0003459Y0019973D02*
X0002874D01*
X0003459Y0019902D02*
X0002827D01*
X0003459Y0019832D02*
X0002763D01*
X0003459Y0019761D02*
X0002669D01*
X-0000416Y0018416D02*
X-0001000D01*
X0002904Y0021037D02*
Y0020463D01*
X0002833Y0020910D02*
Y0020589D01*
X0002763Y0020831D02*
Y0020668D01*
X0002692Y0020775D02*
Y0020724D01*
X0002833Y0022916D02*
Y0021589D01*
X0002763Y0022864D02*
Y0021668D01*
X0001630Y0022609D02*
Y0022545D01*
X0002621Y0022830D02*
Y0022037D01*
X0002338Y0022791D02*
Y0022329D01*
X0002267Y0022710D02*
Y0022400D01*
X0001347Y0022804D02*
Y0022545D01*
X0013000Y0019336D02*
X0012283D01*
X0013000Y0019265D02*
X0012374D01*
X0013000Y0018699D02*
X0012511D01*
X0012532Y0019777D02*
Y0018973D01*
X0013000Y0018628D02*
X0012481D01*
X0012461Y0019592D02*
Y0019157D01*
X0008922Y0018340D02*
Y0017000D01*
X0012390Y0019500D02*
Y0019249D01*
X0012256Y0017006D02*
X0010250D01*
X0012320Y0019438D02*
Y0019311D01*
X0012249Y0019394D02*
Y0019355D01*
X0012886Y0020844D02*
Y0017636D01*
X0012532Y0020490D02*
Y0019973D01*
X-0003402Y0023725D02*
X-0003750D01*
X0013000Y0020256D02*
X0012384D01*
X0013000Y0026415D02*
X0012752D01*
X0012957Y0026543D02*
Y0026210D01*
X0012390Y0020348D02*
Y0020249D01*
X0013000Y0019690D02*
X0012508D01*
X0013000Y0019619D02*
X0012477D01*
X0009559Y0018562D02*
Y0017000D01*
X0013000Y0018770D02*
X0012531D01*
X0010479Y0018624D02*
Y0017006D01*
X0013000Y0019761D02*
X0012529D01*
X0011891Y0018345D02*
X0011109D01*
X0012461Y0020419D02*
Y0020157D01*
X-0002476Y0022308D02*
Y0020893D01*
X0012603Y0020561D02*
Y0017353D01*
X0013000Y0018840D02*
X0012540D01*
X0011470Y0018607D02*
Y0017006D01*
X-0001139Y0022097D02*
X-0001348D01*
X0010891Y0018345D02*
X0010109D01*
X-0001356Y0023442D02*
X-0001588D01*
X-0000989Y0021947D02*
Y0021522D01*
X-0001295Y0022380D02*
X-0001348D01*
X-0000918Y0021876D02*
Y0021542D01*
X0013000Y0019832D02*
X0012539D01*
X0000402Y0022805D02*
X-0000330D01*
X-0000549Y0025353D02*
X-0001061D01*
X-0001588Y0022830D02*
Y0022673D01*
X-0002405Y0022238D02*
Y0020822D01*
X-0001485Y0023703D02*
Y0023420D01*
X0012674Y0020631D02*
Y0017424D01*
X0010621Y0018489D02*
Y0017006D01*
X-0001555Y0020580D02*
Y0020297D01*
X-0001060Y0028330D02*
Y0025352D01*
X-0000777Y0029000D02*
Y0028920D01*
X0001701Y0029000D02*
Y0028920D01*
X0013000Y0019902D02*
X0012540D01*
X-0001555Y0025953D02*
Y0025670D01*
X0008518Y0018628D02*
X0008481D01*
X0008284Y0018415D02*
Y0017000D01*
X-0002074Y0028468D02*
X-0003750D01*
X0010408Y0018520D02*
Y0017006D01*
X0003203Y0027477D02*
X0003065D01*
X0007364Y0017234D02*
Y0017000D01*
X0005948Y0017234D02*
Y0017000D01*
X-0001201Y0029000D02*
Y0028920D01*
X-0001131Y0029000D02*
Y0028920D01*
X0001772Y0029000D02*
Y0028920D01*
X0000781Y0017252D02*
Y0017000D01*
X0001630Y0017234D02*
Y0017000D01*
X0013000Y0017991D02*
X0008265D01*
X0007577Y0017246D02*
Y0017000D01*
X0005878Y0017234D02*
Y0017000D01*
X0002763Y0029000D02*
Y0028779D01*
X0002452Y0028256D02*
X-0001452D01*
X0011682Y0018437D02*
Y0017006D01*
X0008072Y0017697D02*
Y0017000D01*
X0012745Y0017495D02*
X0007871D01*
X0003519Y0019124D02*
X0002640D01*
X0012887Y0017637D02*
X0008012D01*
X0004886Y0017234D02*
Y0017000D01*
X0003488Y0018699D02*
X0002640D01*
X0003683Y0019334D02*
Y0019313D01*
X0003612Y0019334D02*
Y0019252D01*
X0003541Y0019334D02*
Y0019162D01*
X0003471Y0019334D02*
Y0018987D01*
X0007152Y0017234D02*
Y0017000D01*
X-0000345Y0018345D02*
X-0001000D01*
X0006727Y0017234D02*
Y0017000D01*
X0005807Y0017234D02*
Y0017000D01*
X0008568Y0018550D02*
Y0017000D01*
X0012744Y0020702D02*
Y0017494D01*
X0010691Y0018430D02*
Y0017006D01*
X0003705Y0021106D02*
X0002927D01*
X0003080Y0022522D02*
X0002115D01*
X0003535Y0021672D02*
X0002759D01*
X0002267Y0026266D02*
Y0026258D01*
X0001041Y0023959D02*
X0000768Y0023685D01*
X0000808Y0023725D02*
X-0000808D01*
X0003541Y0026291D02*
Y0025796D01*
X-0000210Y0026266D02*
Y0026234D01*
X-0000158Y0026266D02*
X-0000824D01*
X0011824Y0018363D02*
Y0017006D01*
X0009700Y0018424D02*
Y0017000D01*
X-0003402Y0023937D02*
X-0003750D01*
X0002409Y0028299D02*
Y0026133D01*
X0002267Y0028330D02*
Y0028234D01*
X0002196Y0028330D02*
Y0028234D01*
X0002126Y0028330D02*
Y0028234D01*
X0002055Y0028330D02*
Y0028234D01*
X0001347Y0028330D02*
Y0028234D01*
X0001276Y0028330D02*
Y0028234D01*
X0001984Y0028330D02*
Y0028234D01*
X0001913Y0028330D02*
Y0028234D01*
X0001842Y0028330D02*
Y0028234D01*
X0001772Y0028330D02*
Y0028234D01*
X0001701Y0028330D02*
Y0028234D01*
X0001630Y0028330D02*
Y0028234D01*
X0001559Y0028330D02*
Y0028234D01*
X0001488Y0028330D02*
Y0028234D01*
X0001418Y0028330D02*
Y0028234D01*
X0001205Y0028330D02*
Y0028234D01*
X0001134Y0028330D02*
Y0028234D01*
X0001064Y0028330D02*
Y0028234D01*
X0000993Y0028330D02*
Y0028234D01*
X0000922Y0028330D02*
Y0028234D01*
X0000851Y0028330D02*
Y0028234D01*
X0000781Y0028330D02*
Y0028234D01*
X0000710Y0028330D02*
Y0028234D01*
X0000639Y0028330D02*
Y0028234D01*
X0000568Y0028330D02*
Y0028234D01*
X-0001060Y0029000D02*
Y0028920D01*
X0000356Y0028330D02*
Y0028234D01*
X-0000564Y0028330D02*
Y0028234D01*
X-0000635Y0028330D02*
Y0028234D01*
X-0000706Y0028330D02*
Y0028234D01*
X-0000777Y0028330D02*
Y0028234D01*
X0000285Y0028330D02*
Y0028234D01*
X0000214Y0028330D02*
Y0028234D01*
X0000143Y0028330D02*
Y0028234D01*
X0000073Y0028330D02*
Y0028234D01*
X0000002Y0028330D02*
Y0028234D01*
X-0000069Y0028330D02*
Y0028234D01*
X-0000139Y0028330D02*
Y0028234D01*
X-0000210Y0028330D02*
Y0028234D01*
X-0000281Y0028330D02*
Y0028234D01*
X-0000352Y0028330D02*
Y0028234D01*
X-0000423Y0028330D02*
Y0028234D01*
X-0000493Y0028330D02*
Y0028234D01*
X0002480Y0027257D02*
Y0026062D01*
X0002726Y0026981D02*
X0002324D01*
X0002797Y0026911D02*
X0002324D01*
X0002868Y0026840D02*
X0002324D01*
X0003203Y0026698D02*
X0002324D01*
X0003203Y0026628D02*
X0002324D01*
X0003559Y0026274D02*
X0002324D01*
X0003499Y0026344D02*
X0002324D01*
X0003203Y0028114D02*
X0003045D01*
X0002455Y0028043D02*
X0002324D01*
X0002455Y0027973D02*
X0002324D01*
X0002455Y0027902D02*
X0002324D01*
X0002455Y0027831D02*
X0002324D01*
X0002455Y0027760D02*
X0002324D01*
X0002833Y0026874D02*
Y0025708D01*
X0003203Y0028185D02*
X0003045D01*
X0004532Y0029000D02*
Y0027540D01*
X0002455Y0028114D02*
X0002324D01*
X0002455Y0027477D02*
X0002324D01*
X0002455Y0027406D02*
X0002324D01*
X0002904Y0026808D02*
Y0025638D01*
X0003117Y0029000D02*
Y0027425D01*
X0003187Y0029000D02*
Y0027354D01*
X0003117Y0026750D02*
Y0025759D01*
X0003701Y0026132D02*
X0002410D01*
X0000356Y0025705D02*
Y0023362D01*
X-0000384Y0026061D02*
X-0001348D01*
X-0000245Y0026203D02*
X-0001348D01*
X0003159Y0025778D02*
X0002764D01*
X-0000316Y0026132D02*
X-0001348D01*
X0000357Y0025707D02*
X0000238D01*
X0000357Y0025636D02*
X0000238D01*
X0000357Y0025566D02*
X0000238D01*
X0000357Y0025495D02*
X0000238D01*
X0000357Y0025424D02*
X0000238D01*
X0000357Y0025353D02*
X0000238D01*
X0000357Y0025282D02*
X0000238D01*
X0000357Y0025212D02*
X0000238D01*
X0000357Y0025141D02*
X0000238D01*
X0000357Y0025070D02*
X0000238D01*
X0000357Y0024999D02*
X0000238D01*
X0000357Y0024929D02*
X0000238D01*
X0000357Y0024858D02*
X0000238D01*
X0000357Y0024787D02*
X0000238D01*
X0000357Y0024716D02*
X0000238D01*
X0000357Y0024433D02*
X0000238D01*
X0000357Y0024362D02*
X0000238D01*
X0000357Y0024291D02*
X0000238D01*
X0000357Y0024221D02*
X0000238D01*
X0000357Y0024150D02*
X0000238D01*
X0000357Y0024079D02*
X0000238D01*
X0000357Y0024008D02*
X0000238D01*
X0001262Y0024179D02*
X0001143Y0024060D01*
X0001262Y0025705D02*
X0001143D01*
X0001262Y0025636D02*
X0001143D01*
X0001262Y0025566D02*
X0001143D01*
X0001262Y0025495D02*
X0001143D01*
X0001262Y0025424D02*
X0001143D01*
X0001262Y0025353D02*
X0001143D01*
X0001262Y0025282D02*
X0001143D01*
X0001262Y0025212D02*
X0001143D01*
X0001262Y0025141D02*
X0001143D01*
X0001262Y0025070D02*
X0001143D01*
X0001262Y0024999D02*
X0001143D01*
X0001262Y0024929D02*
X0001143D01*
X0001262Y0024858D02*
X0001143D01*
X0001262Y0024787D02*
X0001143D01*
X0001262Y0024716D02*
X0001143D01*
X0001262Y0024645D02*
X0001143D01*
X0001262Y0024575D02*
X0001143D01*
X0001262Y0024504D02*
X0001143D01*
X0001262Y0024433D02*
X0001143D01*
X0001262Y0024362D02*
X0001143D01*
X0001262Y0024291D02*
X0001143D01*
X0001262Y0024221D02*
X0001143D01*
X0001262Y0025705D02*
Y0024179D01*
X0001162Y0024079D02*
X0001143D01*
X-0000493Y0026266D02*
Y0025730D01*
X0002338Y0028330D02*
Y0026204D01*
X0002324Y0026266D02*
X0002252D01*
X0005099Y0028901D02*
Y0027627D01*
X0005170Y0028830D02*
Y0027627D01*
X0013000Y0026344D02*
X0012822D01*
X0003080Y0022238D02*
X0002428D01*
X0003258Y0029000D02*
Y0028652D01*
X-0000824Y0026628D02*
X-0001348D01*
X0003830Y0025778D02*
X0003591D01*
X-0002719Y0027052D02*
X-0003750D01*
X0005250Y0028000D02*
X0005341Y0027977D01*
X0001630Y0029000D02*
Y0028920D01*
X0002621Y0017234D02*
Y0017000D01*
X0003400Y0021808D02*
Y0018515D01*
X0012816Y0017566D02*
X0007942D01*
X0000002Y0029000D02*
Y0028920D01*
X0003471Y0018763D02*
Y0018515D01*
X-0001555Y0028152D02*
Y0027047D01*
X0013000Y0017920D02*
X0008253D01*
X0003771Y0026061D02*
X0002481D01*
X0004391Y0029000D02*
Y0027398D01*
X-0001861Y0028680D02*
X-0003750D01*
X0012943Y0026557D02*
X0012610D01*
X0012872Y0026628D02*
X0012539D01*
X0012660Y0026840D02*
X0012500D01*
X0005250Y0028327D02*
X0004297D01*
X0004399Y0027406D02*
X0004297D01*
X0000356Y0017643D02*
Y0017000D01*
X-0000533Y0017303D02*
X-0000553D01*
X-0000515Y0018628D02*
X-0001000D01*
X0000993Y0017234D02*
Y0017000D01*
X0000008Y0017991D02*
X-0000533D01*
X0012391Y0017141D02*
X-0000391D01*
X0012674Y0026826D02*
Y0026493D01*
X0005250Y0028397D02*
X0004297D01*
X0012731Y0026769D02*
X0012500D01*
X0003705Y0021503D02*
Y0020416D01*
G01X-0000364Y0026083D02*
G03X-0000450Y0025875I0000208J0000208D01*
G01X0002886Y0022955D02*
G03X0003080Y0022761I0000489J0000295D01*
G01X-0000821Y0020250D02*
G03X-0000515Y0019745I0000571J0000000D01*
G01X-0000708Y0021666D02*
G03X-0000671Y0021635I0000208J0000209D01*
G01X0002946Y0021250D02*
G03X0002670Y0021738I0000571J0000000D01*
G01X0002946Y0020250D02*
G03X0002650Y0020750I0000571J0000000D01*
G01X0012000Y0018334D02*
G03X0012541Y0018875I0000000J0000541D01*
G01X0011500Y0018668D02*
G03X0012000Y0018334I0000500J0000207D01*
G01X0012206Y0019375D02*
G03X0012541Y0019875I0000206J0000500D01*
G01X0010500Y0018668D02*
G03X0011000Y0018334I0000500J0000207D01*
G01X0012541Y0018875D02*
G03X0012206Y0019375I0000541J0000000D01*
G01X0009500Y0018668D02*
G03X0010000Y0018334I0000500J0000207D01*
G01X0008500Y0018668D02*
G03X0009000Y0018334I0000500J0000207D01*
G01X0000304Y0023125D02*
G03X0000875Y0022554I0000571J0000000D01*
G01X0012541Y0019875D02*
G03X0012339Y0020297I0000541J0000000D01*
G01X0011000Y0018334D02*
G03X0011500Y0018668I0000000J0000541D01*
G01X0008265Y0018403D02*
G03X0008500Y0018668I0000265J0000472D01*
G01X0003713Y0019334D02*
G03X0003459Y0018875I0000287J0000459D01*
G03X0003596Y0018515I0000541J0000000D01*
G01X0002640Y0019745D02*
G03X0002945Y0020250I0000265J0000505D01*
G01X0001375Y0022850D02*
G03X0001875Y0022554I0000500J0000275D01*
G01X-0000158Y0026266D02*
G03X-0000239Y0026208I0000127J0000266D01*
G01X0002650Y0020750D02*
G03X0002946Y0021250I0000275J0000500D01*
G01X-0000330Y0023125D02*
G03X-0000416Y0023333I0000295J0000000D01*
G01X-0000330Y0023125D02*
G03X-0000416Y0023333I0000295J0000000D01*
G01X0002208Y0022458D02*
G03X0002000Y0022544I0000208J0000208D01*
G01X0002670Y0021875D02*
G03X0002583Y0022083I0000295J0000000D01*
G01X0000875Y0022554D02*
G03X0001375Y0022850I0000000J0000571D01*
G01X-0001250Y0020580D02*
G03X-0001041Y0020666I0000000J0000295D01*
G01X-0000738Y0020955D02*
G03X-0000525Y0020750I0000488J0000295D01*
G01X-0000875Y0021545D02*
G03X-0001083Y0021458I0000000J0000295D01*
G01X-0001420Y0023625D02*
G03X-0001334Y0023417I0000295J0000000D01*
G01X0004742Y0027627D02*
G03X0004534Y0027541I0000000J0000295D01*
G01X0004742Y0027627D02*
G03X0004534Y0027541I0000000J0000295D01*
G01X0013000Y0026156D02*
G03X0012958Y0026208I0000250J0000156D01*
Y0020916D02*
G03X0013000Y0020968I0000208J0000209D01*
G01X0003830Y0025594D02*
G03X0003375Y0025820I0000455J0000344D01*
G01X0002625Y0022830D02*
G03X0002833Y0022916I0000000J0000295D01*
G01X0003080Y0022250D02*
G03X0003166Y0022041I0000295J0000000D01*
G01X-0000708Y0021666D02*
G03X-0000671Y0021635I0000208J0000209D01*
G01X-0001295Y0022375D02*
G03X-0001208Y0022166I0000295J0000000D01*
G01X0000687Y0017312D02*
G03X0000875Y0017234I0000188J0000188D01*
G01X0002333Y0026208D02*
G03X0002252Y0026266I0000208J0000208D01*
G01X0002708Y0028833D02*
G03X0002500Y0028919I0000208J0000208D01*
G01X-0001334Y0023417D02*
G03X-0001375Y0023420I0000041J0000292D01*
G01X-0000364Y0026083D02*
G03X-0000450Y0025875I0000208J0000208D01*
G01X0002670Y0021875D02*
G03X0002583Y0022083I0000295J0000000D01*
G01X0001875Y0022554D02*
G03X0002363Y0022830I0000000J0000571D01*
G01X0002333Y0026208D02*
G03X0002252Y0026266I0000208J0000208D01*
G01X-0000525Y0020750D02*
G03X-0000821Y0020250I0000275J0000500D01*
G01X-0000671Y0021635D02*
G03X-0000738Y0021545I0000421J0000385D01*
G01X-0000875D02*
G03X-0001083Y0021458I0000000J0000295D01*
G01X-0002190Y0028352D02*
G03X-0002276Y0028144I0000209J0000208D01*
G01X-0001500Y0028994D02*
G03X-0001446Y0029000I0000000J0000256D01*
G01X0003080Y0022250D02*
G03X0003166Y0022041I0000295J0000000D01*
G01X0002871Y0026836D02*
G03X0003080Y0026749I0000209J0000209D01*
G01X0003045Y0028375D02*
G03X0002958Y0028583I0000295J0000000D01*
G01X0002455Y0027375D02*
G03X0002541Y0027166I0000295J0000000D01*
G01X-0001500Y0028920D02*
G03X-0001708Y0028833I0000000J0000295D01*
G01X0002708D02*
G03X0002500Y0028919I0000208J0000208D01*
G01X-0002190Y0028352D02*
G03X-0002276Y0028144I0000209J0000208D01*
G01X-0000515Y0018625D02*
G03X-0000438Y0018437I0000265J0000000D01*
G01X0007500Y0017234D02*
G03X0007688Y0017312I0000000J0000266D01*
G01X0008188Y0017812D02*
G03X0008266Y0018000I0000188J0000188D01*
G01X0008188Y0017812D02*
G03X0008266Y0018000I0000188J0000188D01*
G01X0003455Y0026500D02*
G03X0003541Y0026291I0000295J0000000D01*
G01X-0001291Y0025583D02*
G03X-0001500Y0025670I0000209J0000208D01*
G01X-0000830Y0025000D02*
G03X-0000916Y0025208I0000295J0000000D01*
G01X-0001295Y0022375D02*
G03X-0001208Y0022166I0000295J0000000D01*
G01X-0001334Y0023417D02*
G03X-0001375Y0023420I0000041J0000292D01*
G01X0000768Y0023685D02*
G03X0000305Y0023125I0000107J0000560D01*
G01X-0000830Y0025000D02*
G03X-0000916Y0025208I0000295J0000000D01*
G01X0010000Y0018334D02*
G03X0010500Y0018668I0000000J0000541D01*
G01X0009000Y0018334D02*
G03X0009500Y0018668I0000000J0000541D01*
G01X0012958Y0020916D02*
G03X0013000Y0020968I0000208J0000209D01*
G01X0002455Y0027375D02*
G03X0002541Y0027166I0000295J0000000D01*
G01X-0000158Y0026266D02*
G03X-0000239Y0026208I0000127J0000266D01*
G01X0003375Y0025821D02*
G03X0002932Y0025610I0000000J0000571D01*
G01X0013000Y0026156D02*
G03X0012958Y0026208I0000250J0000156D01*
G54D24*
G01X0003750Y0027769D02*
Y0028205D01*
X0000750Y0023969D02*
Y0024844D01*
X0000367D02*
X0000750D01*
X0001133D02*
X0000750D01*
X-0002955Y0020286D02*
Y0019750D01*
X-0003391D02*
X-0002955D01*
X-0002519D02*
X-0002955D01*
Y0022536D02*
Y0022000D01*
Y0021464D02*
Y0022000D01*
X-0003391D02*
X-0002955D01*
X-0002519D02*
X-0002955D01*
Y0024786D02*
Y0024250D01*
Y0023714D02*
Y0024250D01*
X-0003391D02*
X-0002955D01*
X-0002519D02*
X-0002955D01*
Y0025964D02*
Y0026500D01*
Y0027036D02*
Y0026500D01*
X-0002519D02*
X-0002955D01*
X-0003391D02*
X-0002955D01*
X0012375Y0018500D02*
X0012000Y0018875D01*
X0011625Y0018500D02*
X0012000Y0018875D01*
X0012375Y0019250D02*
X0012000Y0018875D01*
X0004286Y0028205D02*
X0003750D01*
X0003214D02*
X0003750D01*
Y0028641D02*
Y0028205D01*
G54D25*
G01X-0004250Y0021000D02*
Y0016750D01*
X0000000D01*
X0013500Y0020000D02*
Y0016750D01*
X0010250D01*
X0013500Y0026750D02*
Y0029250D01*
X0011250D01*
X-0004250Y0026750D02*
Y0029250D01*
X-0001500D01*
G54D26*
G01X0009750Y0022625D02*
Y0023000D01*
X0009966Y0023216D01*
Y0023790D01*
X0004000Y0019875D02*
Y0021625D01*
X0003375Y0022250D01*
Y0023250D01*
X0003750Y0027045D02*
X0003080D01*
X0002750Y0027375D01*
Y0028375D01*
X0002500Y0028625D01*
X-0001500D01*
X-0001981Y0028144D01*
Y0027625D01*
X-0002955Y0022000D02*
X-0003375D01*
X-0003625Y0021750D01*
Y0020000D01*
X-0003375Y0019750D01*
X-0002955D01*
X0011250Y0027750D02*
X0011625D01*
X0013125Y0026250D01*
Y0019250D01*
X0012750Y0018875D01*
X0012000D01*
Y0017750D01*
X0011375Y0017125D01*
X0000625D01*
X-0000625Y0018375D01*
X-0002125D01*
X-0002955Y0019205D01*
Y0019750D01*
Y0026500D02*
X-0003250D01*
X-0003625Y0026125D01*
Y0024500D01*
X-0003375Y0024250D01*
X-0003250D01*
X-0002955D01*
Y0026500D02*
X-0003250D01*
X-0003375D01*
X-0003625Y0026750D01*
Y0028625D01*
X-0003250Y0029000D01*
X0003500D01*
X0003750Y0028750D01*
Y0028205D01*
X-0002955Y0026500D02*
Y0026455D01*
X-0002375Y0025875D01*
X-0001250D01*
X-0000750Y0025375D01*
Y0023875D01*
X-0000500Y0023625D01*
X0000375D01*
X0000750Y0024000D01*
Y0024844D01*
X-0002955Y0024250D02*
X-0003250D01*
X-0003625Y0023875D01*
Y0022250D01*
X-0003375Y0022000D01*
X-0002955D01*
X0008195Y0023553D02*
Y0022250D01*
X0007500Y0021555D01*
Y0020375D01*
X0003750Y0027045D02*
Y0026500D01*
X0004125Y0026125D01*
Y0024625D01*
X0003750Y0024250D01*
X0003375D01*
X0005832Y0027805D02*
X0005195D01*
X0004795Y0028205D01*
X0003750D01*
X0008000Y0019875D02*
Y0021500D01*
X0008667Y0022167D01*
Y0023553D01*
X0005832Y0024970D02*
X0005000D01*
X0004875Y0024845D01*
Y0020875D01*
X0005000Y0020750D01*
Y0019875D01*
X0007250Y0023553D02*
Y0022375D01*
X0006500Y0021625D01*
Y0020500D01*
X-0001981Y0025375D02*
X-0001500D01*
X-0001125Y0025000D01*
Y0023625D01*
X-0000625Y0023125D01*
Y0022625D01*
X-0000250Y0022250D01*
X0002000D01*
X0002375Y0021875D01*
Y0021250D01*
X-0002875Y0020875D02*
X-0001795Y0019795D01*
Y0019750D01*
X0010500Y0020375D02*
Y0021125D01*
X0011625Y0022250D01*
Y0025250D01*
X0010960Y0025915D01*
X0010085D01*
X-0001981Y0020875D02*
X-0001250D01*
X-0000875Y0021250D01*
X-0000250D01*
X0009140Y0023553D02*
Y0022015D01*
X0008500Y0021375D01*
Y0020375D01*
X0003750Y0027045D02*
X0004455D01*
X0004742Y0027332D01*
X0005832D01*
X0010085D02*
X0011417D01*
X0012750Y0026000D01*
Y0021125D01*
X0012000Y0020375D01*
Y0019875D01*
X0005832Y0025442D02*
X0004817D01*
X0004500Y0025125D01*
Y0020750D01*
X0005500Y0020500D02*
Y0021125D01*
X0005250Y0021375D01*
Y0024370D01*
X0005377Y0024497D01*
X0005832D01*
X0011500Y0020500D02*
Y0020625D01*
X0012375Y0021500D01*
Y0025750D01*
X0011265Y0026860D01*
X0010085D01*
X0001875Y0023125D02*
X0002625D01*
X0002750Y0023250D01*
X0003375D01*
X0010085Y0026387D02*
X0011112D01*
X0012000Y0025500D01*
Y0021875D01*
X0011000Y0020875D01*
Y0019875D01*
X0007000D02*
Y0021528D01*
X0007722Y0022250D01*
Y0023553D01*
X0010085Y0024497D02*
X0010252D01*
X0010500Y0024250D01*
Y0022750D01*
X0009000Y0021250D01*
Y0019875D01*
X-0002875Y0027625D02*
X-0001795Y0026545D01*
Y0026500D01*
X0006000Y0019875D02*
Y0021875D01*
X0006778Y0022653D01*
Y0023553D01*
X0005875Y0022625D02*
Y0023125D01*
X0006069Y0023319D01*
Y0023790D01*
X0010085Y0025442D02*
X0010807D01*
X0011250Y0025000D01*
Y0022375D01*
X0010000Y0021125D01*
Y0019875D01*
X-0002875Y0023125D02*
X-0001795Y0022045D01*
Y0022000D01*
X0001000Y0021250D02*
Y0021750D01*
X0000875Y0021875D01*
X-0000500D01*
X-0001000Y0022375D01*
Y0022750D01*
X-0001375Y0023125D01*
X-0001981D01*
X0009500Y0020375D02*
Y0021125D01*
X0010875Y0022500D01*
Y0024845D01*
X0010750Y0024970D01*
X0010085D01*
X-0002875Y0025375D02*
X-0001795Y0024295D01*
Y0024250D01*
X0000875Y0023125D02*
Y0023375D01*
X0001655Y0024155D01*
Y0024844D01*
X0003375Y0025250D02*
X0002875D01*
X0002125Y0026000D01*
X-0000030D01*
X-0000155Y0025875D01*
Y0024844D01*
X0011250Y0027750D02*
X0010805D01*
X0010750Y0027805D01*
X0010085D01*
G54D27*
G01X-0000250Y0020250D02*
Y0018625D01*
X0000875Y0017500D01*
X0007500D01*
X0008000Y0018000D01*
Y0018875D01*
X0007500Y0020375D02*
Y0019500D01*
X0007000Y0019000D01*
Y0018875D01*
X0008000Y0019875D02*
Y0019625D01*
X0007500Y0019125D01*
Y0018125D01*
X0007250Y0017875D01*
X0001250D01*
X0001000Y0018125D01*
Y0020250D01*
X0002375D02*
Y0018500D01*
X0002625Y0018250D01*
X0006750D01*
X0007000Y0018500D01*
Y0018875D01*
X0006500Y0020500D02*
Y0019500D01*
X0006000Y0019000D01*
Y0018875D01*
X0010000D02*
X0010500Y0019375D01*
Y0020375D01*
X0008500D02*
Y0019375D01*
X0008000Y0018875D01*
X0004500Y0020750D02*
Y0019250D01*
X0004125Y0018875D01*
X0004000D01*
X0005000D02*
X0005500Y0019375D01*
Y0020500D01*
X0011000Y0018875D02*
X0011500Y0019375D01*
Y0020500D01*
X0009000Y0018875D02*
X0009500Y0019375D01*
Y0020375D01*
G54D10*
X0003750Y0027045D03*
Y0028205D03*
G54D11*
X-0001981Y0020875D03*
X-0002875D03*
X-0001981Y0023125D03*
X-0002875D03*
X-0001981Y0025375D03*
X-0002875D03*
X-0001981Y0027625D03*
X-0002875D03*
G54D12*
X0003375Y0023250D03*
Y0024250D03*
Y0025250D03*
X-0000250Y0020250D03*
Y0021250D03*
X0001000Y0020250D03*
Y0021250D03*
X0002375Y0020250D03*
Y0021250D03*
X0001875Y0023125D03*
X0000875D03*
G54D13*
X0004000Y0018875D03*
X0005000Y0019875D03*
Y0018875D03*
X0006000Y0019875D03*
Y0018875D03*
X0007000Y0019875D03*
Y0018875D03*
X0008000Y0019875D03*
Y0018875D03*
X0009000Y0019875D03*
Y0018875D03*
X0010000Y0019875D03*
Y0018875D03*
X0011000Y0019875D03*
Y0018875D03*
X0012000Y0019875D03*
Y0018875D03*
G54D14*
X0004000Y0019875D03*
G54D15*
X-0001795Y0019750D03*
X-0002955D03*
X-0001795Y0022000D03*
X-0002955D03*
X-0001795Y0024250D03*
X-0002955D03*
Y0026500D03*
X-0001795D03*
G54D16*
X0011250Y0027750D03*
X0005875Y0022625D03*
X0009750D03*
G54D17*
X0012625Y0028375D03*
X-0003250Y0017875D03*
G54D18*
X0009966Y0023790D03*
X0006069D03*
X0009966Y0028514D03*
X0006069D03*
G54D19*
X0010085Y0027805D03*
Y0027332D03*
Y0026860D03*
Y0026387D03*
Y0025915D03*
Y0025442D03*
Y0024970D03*
Y0024497D03*
X0005832D03*
Y0024970D03*
Y0025442D03*
Y0025915D03*
Y0026387D03*
Y0026860D03*
Y0027332D03*
Y0027805D03*
G54D20*
X0009140Y0023553D03*
X0008667D03*
X0008195D03*
X0007722D03*
X0007250D03*
X0006778D03*
G54D21*
X0000750Y0027250D03*
G54D22*
X0001655Y0024844D03*
X0000750D03*
X-0000155D03*
M02*
