%
T2C0.0433F200S100
X-000250Y020250
X-000250Y021250
X000875Y023125
X001000Y020250
X001000Y021250
X001875Y023125
X002375Y020250
X002375Y021250
X003375Y023250
X003375Y024250
X003375Y025250
X004000Y018875
X004000Y019875
X005000Y018875
X005000Y019875
X006000Y018875
X006000Y019875
X007000Y018875
X007000Y019875
X008000Y018875
X008000Y019875
X009000Y018875
X009000Y019875
X010000Y018875
X010000Y019875
X011000Y018875
X011000Y019875
X012000Y018875
X012000Y019875
T3C0.1181F200S100
X-003250Y017875
X012625Y028375
T1C0.0276F200S100
X005875Y022625
X009750Y022625
X011250Y027750
M30
